<?xml version="1.0" encoding="utf-8" standalone="no"?><!DOCTYPE svg PUBLIC "-//W3C//DTD SVG 1.1//EN" "http://www.w3.org/Graphics/SVG/1.1/DTD/svg11.dtd"><svg width="930px" height="412px" version="1.1" xmlns="http://www.w3.org/2000/svg" xmlns:xlink="http://www.w3.org/1999/xlink"><desc /><defs><linearGradient id="fs1" x1="0.499999284744263px" y1="-0.500000298023224px" x2="1.4999988079071px" y2="0.499999314546585px"><stop offset="0%" stop-color="#FFFFFF" stop-opacity="1" /><stop offset="100%" stop-color="#EBEBEB" stop-opacity="1" /></linearGradient><linearGradient id="fs2" x1="0.999999523162842px" y1="-1.68605410522105E-07px" x2="0.999999403953552px" y2="0.999999582767487px"><stop offset="0%" stop-color="#FFFFFF" stop-opacity="0.5490196" /><stop offset="100%" stop-color="#FFFFFF" stop-opacity="0.1568628" /></linearGradient><linearGradient id="fs3" x1="0.499999821186066px" y1="-0.5px" x2="1.49999940395355px" y2="0.499999672174454px"><stop offset="0%" stop-color="#FFFFFF" stop-opacity="1" /><stop offset="100%" stop-color="#EBEBEB" stop-opacity="1" /></linearGradient><linearGradient id="fs4" x1="0.999999761581421px" y1="-1.06954125556058E-07px" x2="0.999999642372131px" y2="0.999999582767487px"><stop offset="0%" stop-color="#FFFFFF" stop-opacity="0.5490196" /><stop offset="100%" stop-color="#FFFFFF" stop-opacity="0.1568628" /></linearGradient><linearGradient id="fs5" x1="0.499965131282806px" y1="-0.500021815299988px" x2="1.49996435642242px" y2="0.499975293874741px"><stop offset="0%" stop-color="#FFFFFF" stop-opacity="1" /><stop offset="100%" stop-color="#EBEBEB" stop-opacity="1" /></linearGradient><linearGradient id="fs6" x1="0.999988377094269px" y1="-5.340576171875E-05px" x2="0.999988377094269px" y2="0.999946594238281px"><stop offset="0%" stop-color="#FFFFFF" stop-opacity="0.5490196" /><stop offset="100%" stop-color="#FFFFFF" stop-opacity="0.1568628" /></linearGradient><linearGradient id="fs7" x1="0.499998837709427px" y1="-0.500000417232513px" x2="1.49999845027924px" y2="0.499999195337296px"><stop offset="0%" stop-color="#FFFFFF" stop-opacity="1" /><stop offset="100%" stop-color="#EBEBEB" stop-opacity="1" /></linearGradient><linearGradient id="fs8" x1="0.999999344348907px" y1="-4.62387561128708E-07px" x2="0.999999105930328px" y2="0.999999523162842px"><stop offset="0%" stop-color="#FFFFFF" stop-opacity="0.5490196" /><stop offset="100%" stop-color="#FFFFFF" stop-opacity="0.1568628" /></linearGradient><linearGradient id="fs9" x1="0.499752938747406px" y1="-0.500043570995331px" x2="1.49975001811981px" y2="0.499953508377075px"><stop offset="0%" stop-color="#FFFFFF" stop-opacity="1" /><stop offset="100%" stop-color="#EBEBEB" stop-opacity="1" /></linearGradient><linearGradient id="fs10" x1="0.999956429004669px" y1="-1.78019199665869E-05px" x2="0.999953508377075px" y2="0.999982178211212px"><stop offset="0%" stop-color="#FFFFFF" stop-opacity="0.5490196" /><stop offset="100%" stop-color="#FFFFFF" stop-opacity="0.1568628" /></linearGradient><linearGradient id="fs11" x1="0.499721676111221px" y1="-0.500026881694794px" x2="1.49971926212311px" y2="0.499973148107529px"><stop offset="0%" stop-color="#FFFFFF" stop-opacity="1" /><stop offset="100%" stop-color="#EBEBEB" stop-opacity="1" /></linearGradient><linearGradient id="fs12" x1="0.999909639358521px" y1="-1.83105476025958E-05px" x2="0.999907255172729px" y2="0.999981701374054px"><stop offset="0%" stop-color="#FFFFFF" stop-opacity="0.5490196" /><stop offset="100%" stop-color="#FFFFFF" stop-opacity="0.1568628" /></linearGradient><linearGradient id="fs13" x1="0.499987185001373px" y1="-0.500001609325409px" x2="1.49998664855957px" y2="0.499997854232788px"><stop offset="0%" stop-color="#FFFFFF" stop-opacity="1" /><stop offset="100%" stop-color="#EBEBEB" stop-opacity="1" /></linearGradient><linearGradient id="fs14" x1="0.99999076128006px" y1="-1.38716268338612E-06px" x2="0.999989748001099px" y2="0.99999862909317px"><stop offset="0%" stop-color="#FFFFFF" stop-opacity="0.5490196" /><stop offset="100%" stop-color="#FFFFFF" stop-opacity="0.1568628" /></linearGradient><linearGradient id="fs15" x1="0.499761670827866px" y1="-0.500043570995331px" x2="1.49975872039795px" y2="0.499953508377075px"><stop offset="0%" stop-color="#FFFFFF" stop-opacity="1" /><stop offset="100%" stop-color="#EBEBEB" stop-opacity="1" /></linearGradient><linearGradient id="fs16" x1="0.999953508377075px" y1="-1.65303554240381E-05px" x2="0.999950587749481px" y2="0.999983489513397px"><stop offset="0%" stop-color="#FFFFFF" stop-opacity="0.5490196" /><stop offset="100%" stop-color="#FFFFFF" stop-opacity="0.1568628" /></linearGradient><linearGradient id="fs17" x1="0.499914258718491px" y1="-0.500021815299988px" x2="1.49991285800934px" y2="0.499975293874741px"><stop offset="0%" stop-color="#FFFFFF" stop-opacity="1" /><stop offset="100%" stop-color="#EBEBEB" stop-opacity="1" /></linearGradient><linearGradient id="fs18" x1="0.999985456466675px" y1="-1.52587890625E-05px" x2="0.9999840259552px" y2="0.999984741210938px"><stop offset="0%" stop-color="#FFFFFF" stop-opacity="0.5490196" /><stop offset="100%" stop-color="#FFFFFF" stop-opacity="0.1568628" /></linearGradient><linearGradient id="fs19" x1="0.499997854232788px" y1="-0.500000774860382px" x2="1.49999713897705px" y2="0.499999225139618px"><stop offset="0%" stop-color="#FFFFFF" stop-opacity="1" /><stop offset="100%" stop-color="#EBEBEB" stop-opacity="1" /></linearGradient><linearGradient id="fs20" x1="0.999997496604919px" y1="-6.63425623770308E-07px" x2="0.999996781349182px" y2="0.999999344348907px"><stop offset="0%" stop-color="#FFFFFF" stop-opacity="0.5490196" /><stop offset="100%" stop-color="#FFFFFF" stop-opacity="0.1568628" /></linearGradient><linearGradient id="fs21" x1="0.499993592500687px" y1="-0.500002801418304px" x2="1.49999225139618px" y2="0.499996244907379px"><stop offset="0%" stop-color="#FFFFFF" stop-opacity="1" /><stop offset="100%" stop-color="#EBEBEB" stop-opacity="1" /></linearGradient><linearGradient id="fs22" x1="0.999997437000275px" y1="-1.40541476412182E-06px" x2="0.999996423721313px" y2="0.999998390674591px"><stop offset="0%" stop-color="#FFFFFF" stop-opacity="0.5490196" /><stop offset="100%" stop-color="#FFFFFF" stop-opacity="0.1568628" /></linearGradient><linearGradient id="fs23" x1="0.499991536140442px" y1="-0.500002145767212px" x2="1.49999022483826px" y2="0.499997407197952px"><stop offset="0%" stop-color="#FFFFFF" stop-opacity="1" /><stop offset="100%" stop-color="#EBEBEB" stop-opacity="1" /></linearGradient><linearGradient id="fs24" x1="0.999995887279511px" y1="-2.97732458420796E-06px" x2="0.999994874000549px" y2="0.999997019767761px"><stop offset="0%" stop-color="#FFFFFF" stop-opacity="0.5490196" /><stop offset="100%" stop-color="#FFFFFF" stop-opacity="0.1568628" /></linearGradient><clipPath id="cp1"><path d="M 409.0278 5 L 915.0278 5  915.0278 315.733  409.0278 315.733 z " /></clipPath><clipPath id="cp2" clip-rule="evenodd"><path d="M -30000 -30000 L 30000 -30000  30000 30000  -30000 30000 z M 409.0278 5 L 915.0278 5  915.0278 315.733  409.0278 315.733 z " /></clipPath><clipPath id="cp3"><path d="M 408 4 L 915 4  915 316  408 316 z " /></clipPath><clipPath id="cp4"><path d="M 5 56.6528 L 259.4567 56.6528  259.4567 240.6528  5 240.6528 z " /></clipPath><clipPath id="cp5" clip-rule="evenodd"><path d="M -30000 -30000 L 30000 -30000  30000 30000  -30000 30000 z M 5 56.6528 L 259.4567 56.6528  259.4567 240.6528  5 240.6528 z " /></clipPath><clipPath id="cp6"><path d="M 4 56 L 259 56  259 241  4 241 z " /></clipPath><clipPath id="cp7"><path d="M 190.3813 294.1449 C 190.3813 299.9926  185.6408 304.733  179.7932 304.733  173.9456 304.733  169.2051 299.9926  169.2051 294.1449  169.2051 288.2973  173.9456 283.5569  179.7932 283.5569  185.6408 283.5569  190.3813 288.2973  190.3813 294.1449 z " /></clipPath><clipPath id="cp8" clip-rule="evenodd"><path d="M -30000 -30000 L 30000 -30000  30000 30000  -30000 30000 z M 190.3813 294.1449 C 190.3813 299.9926  185.6408 304.733  179.7932 304.733  173.9456 304.733  169.2051 299.9926  169.2051 294.1449  169.2051 288.2973  173.9456 283.5569  179.7932 283.5569  185.6408 283.5569  190.3813 288.2973  190.3813 294.1449 z " /></clipPath><clipPath id="cp9"><path d="M 189 293.5 C 189 299.299  184.299 304  178.5 304  172.701 304  168 299.299  168 293.5  168 287.701  172.701 283  178.5 283  184.299 283  189 287.701  189 293.5 z " /></clipPath><clipPath id="cp10"><path d="M 120.5 117.4418 L 239.0864 117.4418  239.0864 230.3062  120.5 230.3062 z " /></clipPath><clipPath id="cp11" clip-rule="evenodd"><path d="M -30000 -30000 L 30000 -30000  30000 30000  -30000 30000 z M 120.5 117.4418 L 239.0864 117.4418  239.0864 230.3062  120.5 230.3062 z " /></clipPath><clipPath id="cp12"><path d="M 120 116 L 240 116  240 230  120 230 z " /></clipPath><clipPath id="cp13"><path d="M 738.8022 145.2234 C 738.8022 151.071  734.0618 155.8114  728.2142 155.8114  722.3666 155.8114  717.6262 151.071  717.6262 145.2234  717.6262 139.3757  722.3666 134.6353  728.2142 134.6353  734.0618 134.6353  738.8022 139.3757  738.8022 145.2234 z " /></clipPath><clipPath id="cp14" clip-rule="evenodd"><path d="M -30000 -30000 L 30000 -30000  30000 30000  -30000 30000 z M 738.8022 145.2234 C 738.8022 151.071  734.0618 155.8114  728.2142 155.8114  722.3666 155.8114  717.6262 151.071  717.6262 145.2234  717.6262 139.3757  722.3666 134.6353  728.2142 134.6353  734.0618 134.6353  738.8022 139.3757  738.8022 145.2234 z " /></clipPath><clipPath id="cp15"><path d="M 738 144.5 C 738 150.299  733.299 155  727.5 155  721.701 155  717 150.299  717 144.5  717 138.701  721.701 134  727.5 134  733.299 134  738 138.701  738 144.5 z " /></clipPath><clipPath id="cp16"><path d="M 843.2068 345.7331 C 843.2068 352.6366  837.6103 358.2331  830.7068 358.2331  823.8032 358.2331  818.2068 352.6366  818.2068 345.7331  818.2068 338.8295  823.8032 333.2331  830.7068 333.2331  837.6103 333.2331  843.2068 338.8295  843.2068 345.7331 z " /></clipPath><clipPath id="cp17" clip-rule="evenodd"><path d="M -30000 -30000 L 30000 -30000  30000 30000  -30000 30000 z M 843.2068 345.7331 C 843.2068 352.6366  837.6103 358.2331  830.7068 358.2331  823.8032 358.2331  818.2068 352.6366  818.2068 345.7331  818.2068 338.8295  823.8032 333.2331  830.7068 333.2331  837.6103 333.2331  843.2068 338.8295  843.2068 345.7331 z " /></clipPath><clipPath id="cp18"><path d="M 842 344.5 C 842 351.4035  836.4035 357  829.5 357  822.5964 357  817 351.4035  817 344.5  817 337.5964  822.5964 332  829.5 332  836.4035 332  842 337.5964  842 344.5 z " /></clipPath><clipPath id="cp19"><path d="M 771.4136 117.4418 L 890 117.4418  890 230.3062  771.4136 230.3062 z " /></clipPath><clipPath id="cp20" clip-rule="evenodd"><path d="M -30000 -30000 L 30000 -30000  30000 30000  -30000 30000 z M 771.4136 117.4418 L 890 117.4418  890 230.3062  771.4136 230.3062 z " /></clipPath><clipPath id="cp21"><path d="M 770 116 L 890 116  890 230  770 230 z " /></clipPath><clipPath id="cp22"><path d="M 738.8022 208.0042 C 738.8022 213.8518  734.0618 218.5922  728.2142 218.5922  722.3666 218.5922  717.6262 213.8518  717.6262 208.0042  717.6262 202.1565  722.3666 197.4161  728.2142 197.4161  734.0618 197.4161  738.8022 202.1565  738.8022 208.0042 z " /></clipPath><clipPath id="cp23" clip-rule="evenodd"><path d="M -30000 -30000 L 30000 -30000  30000 30000  -30000 30000 z M 738.8022 208.0042 C 738.8022 213.8518  734.0618 218.5922  728.2142 218.5922  722.3666 218.5922  717.6262 213.8518  717.6262 208.0042  717.6262 202.1565  722.3666 197.4161  728.2142 197.4161  734.0618 197.4161  738.8022 202.1565  738.8022 208.0042 z " /></clipPath><clipPath id="cp24"><path d="M 738 206.5 C 738 212.299  733.299 217  727.5 217  721.701 217  717 212.299  717 206.5  717 200.701  721.701 196  727.5 196  733.299 196  738 200.701  738 206.5 z " /></clipPath><clipPath id="cp25"><path d="M 385.0197 157.0778 C 385.0197 162.9254  380.2793 167.6658  374.4316 167.6658  368.584 167.6658  363.8436 162.9254  363.8436 157.0778  363.8436 151.2301  368.584 146.4897  374.4316 146.4897  380.2793 146.4897  385.0197 151.2301  385.0197 157.0778 z " /></clipPath><clipPath id="cp26" clip-rule="evenodd"><path d="M -30000 -30000 L 30000 -30000  30000 30000  -30000 30000 z M 385.0197 157.0778 C 385.0197 162.9254  380.2793 167.6658  374.4316 167.6658  368.584 167.6658  363.8436 162.9254  363.8436 157.0778  363.8436 151.2301  368.584 146.4897  374.4316 146.4897  380.2793 146.4897  385.0197 151.2301  385.0197 157.0778 z " /></clipPath><clipPath id="cp27"><path d="M 384 155.5 C 384 161.299  379.299 166  373.5 166  367.701 166  363 161.299  363 155.5  363 149.701  367.701 145  373.5 145  379.299 145  384 149.701  384 155.5 z " /></clipPath><clipPath id="cp28"><path d="M 423.1251 67.6658 L 594.1251 67.6658  594.1251 304.733  423.1251 304.733 z " /></clipPath><clipPath id="cp29" clip-rule="evenodd"><path d="M -30000 -30000 L 30000 -30000  30000 30000  -30000 30000 z M 423.1251 67.6658 L 594.1251 67.6658  594.1251 304.733  423.1251 304.733 z " /></clipPath><clipPath id="cp30"><path d="M 422 67 L 594 67  594 305  422 305 z " /></clipPath><clipPath id="cp31"><path d="M 449.8071 119.1602 L 568.3935 119.1602  568.3935 183.7045  449.8071 183.7045 z " /></clipPath><clipPath id="cp32" clip-rule="evenodd"><path d="M -30000 -30000 L 30000 -30000  30000 30000  -30000 30000 z M 449.8071 119.1602 L 568.3935 119.1602  568.3935 183.7045  449.8071 183.7045 z " /></clipPath><clipPath id="cp33"><path d="M 449 118 L 569 118  569 184  449 184 z " /></clipPath><clipPath id="cp34"><path d="M 449.8071 212.9423 L 568.3935 212.9423  568.3935 283.5569  449.8071 283.5569 z " /></clipPath><clipPath id="cp35" clip-rule="evenodd"><path d="M -30000 -30000 L 30000 -30000  30000 30000  -30000 30000 z M 449.8071 212.9423 L 568.3935 212.9423  568.3935 283.5569  449.8071 283.5569 z " /></clipPath><clipPath id="cp36"><path d="M 449 212 L 569 212  569 284  449 284 z " /></clipPath></defs><g clip-path="url(#)" transform="matrix(1 0 0 1 0 0)" /><g clip-path="url(#cp1)" transform="matrix(1 0 0 1 0 0)"><rect x="408px" y="4px" width="508px" height="313px" fill="rgba(0,0,0,0.196)" /></g><g clip-path="url(#)" transform="matrix(1 0 0 1 0 0)" /><g clip-path="url(#cp2)" transform="matrix(1 0 0 1 0 0)"><path fill="none" d="M 409.0278 5 L 915.0278 5  915.0278 315.733  409.0278 315.733 z " stroke="rgba(0,0,0,0.051)" stroke-width="8px" stroke-dashoffset="0" stroke-linejoin="round" stroke-miterlimit="10" /><path fill="none" d="M 409.0278 5 L 915.0278 5  915.0278 315.733  409.0278 315.733 z " stroke="rgba(0,0,0,0.051)" stroke-width="6px" stroke-dashoffset="0" stroke-linejoin="round" stroke-miterlimit="10" /><path fill="none" d="M 409.0278 5 L 915.0278 5  915.0278 315.733  409.0278 315.733 z " stroke="rgba(0,0,0,0.051)" stroke-width="4px" stroke-dashoffset="0" stroke-linejoin="round" stroke-miterlimit="10" /><path fill="none" d="M 409.0278 5 L 915.0278 5  915.0278 315.733  409.0278 315.733 z " stroke="rgba(0,0,0,0.051)" stroke-width="2px" stroke-dashoffset="0" stroke-linejoin="round" stroke-miterlimit="10" /></g><g clip-path="url(#)" transform="matrix(1 0 0 1 0 0)"><rect x="408px" y="4px" width="506px" height="311px" fill="url(#fs1)" /><path d="M 914.0278 107.5777 C 661.0278 107.5777  408.0278 107.5777  408.0278 185.2609 L 408.0278 4  914.0278 4  914.0278 107.5777 z " fill="url(#fs2)" /><rect x="408px" y="4px" width="506px" height="311px" fill="none" stroke="#000000" stroke-width="1px" stroke-dashoffset="0" stroke-linejoin="round" stroke-miterlimit="10" /></g><g clip-path="url(#cp3)" transform="matrix(1 0 0 1 0 0)"><rect x="896px" y="12px" width="10px" height="15px" fill="#FFFFFF" /><rect x="896px" y="12px" width="10px" height="15px" fill="none" stroke="#000000" stroke-width="1px" stroke-dashoffset="0" stroke-linejoin="miter" stroke-miterlimit="10" /><rect x="894px" y="14px" width="6px" height="4px" fill="#FFFFFF" /><rect x="894px" y="14px" width="6px" height="4px" fill="none" stroke="#000000" stroke-width="1px" stroke-dashoffset="0" stroke-linejoin="miter" stroke-miterlimit="10" /><rect x="894px" y="20px" width="6px" height="4px" fill="#FFFFFF" /><rect x="894px" y="20px" width="6px" height="4px" fill="none" stroke="#000000" stroke-width="1px" stroke-dashoffset="0" stroke-linejoin="miter" stroke-miterlimit="10" /><text x="610px" y="20.0006217956543px" font-family="Verdana" font-size="8.639999pt" font-style="italic" fill="#1E1E1E">«component»</text><text x="594px" y="37.5562477111816px" font-family="Verdana" font-size="9.599999pt" font-weight="bold" fill="#000000">Test_Recording</text><line x1="408px" y1="51px" x2="914px" y2="51px" stroke="#000000" stroke-width="1px" stroke-dashoffset="0" stroke-linejoin="round" stroke-miterlimit="10" /></g><g clip-path="url(#)" transform="matrix(1 0 0 1 0 0)" /><g clip-path="url(#)" transform="matrix(1 0 0 1 0 0)" /><g clip-path="url(#)" transform="matrix(1 0 0 1 0 0)" /><g clip-path="url(#cp4)" transform="matrix(1 0 0 1 0 0)"><rect x="4px" y="56px" width="256px" height="186px" fill="rgba(0,0,0,0.196)" /></g><g clip-path="url(#)" transform="matrix(1 0 0 1 0 0)" /><g clip-path="url(#cp5)" transform="matrix(1 0 0 1 0 0)"><path fill="none" d="M 5 56.6528 L 259.4567 56.6528  259.4567 240.6528  5 240.6528 z " stroke="rgba(0,0,0,0.051)" stroke-width="8px" stroke-dashoffset="0" stroke-linejoin="round" stroke-miterlimit="10" /><path fill="none" d="M 5 56.6528 L 259.4567 56.6528  259.4567 240.6528  5 240.6528 z " stroke="rgba(0,0,0,0.051)" stroke-width="6px" stroke-dashoffset="0" stroke-linejoin="round" stroke-miterlimit="10" /><path fill="none" d="M 5 56.6528 L 259.4567 56.6528  259.4567 240.6528  5 240.6528 z " stroke="rgba(0,0,0,0.051)" stroke-width="4px" stroke-dashoffset="0" stroke-linejoin="round" stroke-miterlimit="10" /><path fill="none" d="M 5 56.6528 L 259.4567 56.6528  259.4567 240.6528  5 240.6528 z " stroke="rgba(0,0,0,0.051)" stroke-width="2px" stroke-dashoffset="0" stroke-linejoin="round" stroke-miterlimit="10" /></g><g clip-path="url(#)" transform="matrix(1 0 0 1 0 0)"><rect x="4px" y="56px" width="254px" height="184px" fill="url(#fs3)" /><path d="M 258.4567 116.9861 C 131.2283 116.9861  4 116.9861  4 162.9861 L 4 55.6528  258.4567 55.6528  258.4567 116.9861 z " fill="url(#fs4)" /><rect x="4px" y="56px" width="254px" height="184px" fill="none" stroke="#000000" stroke-width="1px" stroke-dashoffset="0" stroke-linejoin="round" stroke-miterlimit="10" /></g><g clip-path="url(#cp6)" transform="matrix(1 0 0 1 0 0)"><rect x="240px" y="64px" width="10px" height="15px" fill="#FFFFFF" /><rect x="240px" y="64px" width="10px" height="15px" fill="none" stroke="#000000" stroke-width="1px" stroke-dashoffset="0" stroke-linejoin="miter" stroke-miterlimit="10" /><rect x="238px" y="66px" width="6px" height="4px" fill="#FFFFFF" /><rect x="238px" y="66px" width="6px" height="4px" fill="none" stroke="#000000" stroke-width="1px" stroke-dashoffset="0" stroke-linejoin="miter" stroke-miterlimit="10" /><rect x="238px" y="72px" width="6px" height="4px" fill="#FFFFFF" /><rect x="238px" y="72px" width="6px" height="4px" fill="none" stroke="#000000" stroke-width="1px" stroke-dashoffset="0" stroke-linejoin="miter" stroke-miterlimit="10" /><text x="80px" y="72.0006256103516px" font-family="Verdana" font-size="8.639999pt" font-style="italic" fill="#1E1E1E">«component»</text><text x="58px" y="89.5562438964844px" font-family="Verdana" font-size="9.599999pt" font-weight="bold" fill="#000000">Test_Framework</text><line x1="4px" y1="103px" x2="258px" y2="103px" stroke="#000000" stroke-width="1px" stroke-dashoffset="0" stroke-linejoin="round" stroke-miterlimit="10" /></g><g clip-path="url(#)" transform="matrix(1 0 0 1 0 0)" /><g clip-path="url(#)" transform="matrix(1 0 0 1 0 0)" /><g clip-path="url(#)" transform="matrix(1 0 0 1 0 0)"><path fill="none" d="M 305.5 166 C 299.701 166  295 161.299  295 155.5  295 149.701  299.701 145  305.5 145 " stroke="#000000" stroke-width="1px" stroke-dashoffset="0" stroke-linejoin="round" stroke-miterlimit="10" /><text x="275px" y="193.556243896484px" font-family="Verdana" font-size="9.599999pt" font-weight="bold" fill="#000000">Process </text><text x="287px" y="209.556243896484px" font-family="Verdana" font-size="9.599999pt" font-weight="bold" fill="#000000">Data</text></g><g clip-path="url(#)" transform="matrix(1 0 0 1 0 0)" /><g clip-path="url(#)" transform="matrix(1 0 0 1 0 0)" /><g clip-path="url(#cp7)" transform="matrix(1 0 0 1 0 0)"><rect x="168px" y="283px" width="23px" height="23px" fill="rgba(0,0,0,0.196)" /></g><g clip-path="url(#)" transform="matrix(1 0 0 1 0 0)" /><g clip-path="url(#cp8)" transform="matrix(1 0 0 1 0 0)"><path fill="none" d="M 190.3813 294.1449 C 190.3813 299.9926  185.6408 304.733  179.7932 304.733  173.9456 304.733  169.2051 299.9926  169.2051 294.1449  169.2051 288.2973  173.9456 283.5569  179.7932 283.5569  185.6408 283.5569  190.3813 288.2973  190.3813 294.1449 z " stroke="rgba(0,0,0,0.051)" stroke-width="8px" stroke-dashoffset="0" stroke-linejoin="round" stroke-miterlimit="10" /><path fill="none" d="M 190.3813 294.1449 C 190.3813 299.9926  185.6408 304.733  179.7932 304.733  173.9456 304.733  169.2051 299.9926  169.2051 294.1449  169.2051 288.2973  173.9456 283.5569  179.7932 283.5569  185.6408 283.5569  190.3813 288.2973  190.3813 294.1449 z " stroke="rgba(0,0,0,0.051)" stroke-width="6px" stroke-dashoffset="0" stroke-linejoin="round" stroke-miterlimit="10" /><path fill="none" d="M 190.3813 294.1449 C 190.3813 299.9926  185.6408 304.733  179.7932 304.733  173.9456 304.733  169.2051 299.9926  169.2051 294.1449  169.2051 288.2973  173.9456 283.5569  179.7932 283.5569  185.6408 283.5569  190.3813 288.2973  190.3813 294.1449 z " stroke="rgba(0,0,0,0.051)" stroke-width="4px" stroke-dashoffset="0" stroke-linejoin="round" stroke-miterlimit="10" /><path fill="none" d="M 190.3813 294.1449 C 190.3813 299.9926  185.6408 304.733  179.7932 304.733  173.9456 304.733  169.2051 299.9926  169.2051 294.1449  169.2051 288.2973  173.9456 283.5569  179.7932 283.5569  185.6408 283.5569  190.3813 288.2973  190.3813 294.1449 z " stroke="rgba(0,0,0,0.051)" stroke-width="2px" stroke-dashoffset="0" stroke-linejoin="round" stroke-miterlimit="10" /></g><g clip-path="url(#)" transform="matrix(1 0 0 1 0 0)"><ellipse cx="178.5px" cy="293.5px" rx="10.5px" ry="10.5px" fill="url(#fs5)" /></g><g clip-path="url(#cp9)" transform="matrix(1 0 0 1 0 0)"><path d="M 189.3813 289.6156 C 178.7932 289.6156  168.2051 289.6156  168.2051 294.9096 L 168.2051 282.5569  189.3813 282.5569  189.3813 289.6156 z " fill="url(#fs6)" /></g><g clip-path="url(#)" transform="matrix(1 0 0 1 0 0)"><ellipse cx="178.5px" cy="293.5px" rx="10.5px" ry="10.5px" fill="none" stroke="#000000" stroke-width="1px" stroke-dashoffset="0" stroke-linejoin="round" stroke-miterlimit="10" /><text x="149px" y="330.556243896484px" font-family="Verdana" font-size="9.599999pt" font-weight="bold" fill="#000000">Run and</text><text x="152px" y="346.556243896484px" font-family="Verdana" font-size="9.599999pt" font-weight="bold" fill="#000000">Record</text></g><g clip-path="url(#)" transform="matrix(1 0 0 1 0 0)" /><g clip-path="url(#)" transform="matrix(1 0 0 1 0 0)" /><g clip-path="url(#cp10)" transform="matrix(1 0 0 1 0 0)"><rect x="120px" y="116px" width="121px" height="115px" fill="rgba(0,0,0,0.196)" /></g><g clip-path="url(#)" transform="matrix(1 0 0 1 0 0)" /><g clip-path="url(#cp11)" transform="matrix(1 0 0 1 0 0)"><path fill="none" d="M 120.5 117.4418 L 239.0864 117.4418  239.0864 230.3062  120.5 230.3062 z " stroke="rgba(0,0,0,0.051)" stroke-width="8px" stroke-dashoffset="0" stroke-linejoin="round" stroke-miterlimit="10" /><path fill="none" d="M 120.5 117.4418 L 239.0864 117.4418  239.0864 230.3062  120.5 230.3062 z " stroke="rgba(0,0,0,0.051)" stroke-width="6px" stroke-dashoffset="0" stroke-linejoin="round" stroke-miterlimit="10" /><path fill="none" d="M 120.5 117.4418 L 239.0864 117.4418  239.0864 230.3062  120.5 230.3062 z " stroke="rgba(0,0,0,0.051)" stroke-width="4px" stroke-dashoffset="0" stroke-linejoin="round" stroke-miterlimit="10" /><path fill="none" d="M 120.5 117.4418 L 239.0864 117.4418  239.0864 230.3062  120.5 230.3062 z " stroke="rgba(0,0,0,0.051)" stroke-width="2px" stroke-dashoffset="0" stroke-linejoin="round" stroke-miterlimit="10" /></g><g clip-path="url(#)" transform="matrix(1 0 0 1 0 0)"><rect x="120px" y="116px" width="119px" height="113px" fill="url(#fs7)" /><path d="M 238.0864 154.0633 C 178.7932 154.0633  119.5 154.0633  119.5 182.2794 L 119.5 116.4418  238.0864 116.4418  238.0864 154.0633 z " fill="url(#fs8)" /><rect x="120px" y="116px" width="119px" height="113px" fill="none" stroke="#000000" stroke-width="1px" stroke-dashoffset="0" stroke-linejoin="round" stroke-miterlimit="10" /></g><g clip-path="url(#cp12)" transform="matrix(1 0 0 1 0 0)"><rect x="220px" y="124px" width="10px" height="15px" fill="#FFFFFF" /><rect x="220px" y="124px" width="10px" height="15px" fill="none" stroke="#000000" stroke-width="1px" stroke-dashoffset="0" stroke-linejoin="miter" stroke-miterlimit="10" /><rect x="218px" y="126px" width="6px" height="4px" fill="#FFFFFF" /><rect x="218px" y="126px" width="6px" height="4px" fill="none" stroke="#000000" stroke-width="1px" stroke-dashoffset="0" stroke-linejoin="miter" stroke-miterlimit="10" /><rect x="218px" y="132px" width="6px" height="4px" fill="#FFFFFF" /><rect x="218px" y="132px" width="6px" height="4px" fill="none" stroke="#000000" stroke-width="1px" stroke-dashoffset="0" stroke-linejoin="miter" stroke-miterlimit="10" /><text x="127px" y="171.000625610352px" font-family="Verdana" font-size="8.639999pt" font-style="italic" fill="#1E1E1E">«component»</text><text x="130px" y="188.556243896484px" font-family="Verdana" font-size="9.599999pt" font-weight="bold" fill="#000000">Simulation</text></g><g clip-path="url(#)" transform="matrix(1 0 0 1 0 0)" /><g clip-path="url(#)" transform="matrix(1 0 0 1 0 0)" /><g clip-path="url(#)" transform="matrix(1 0 0 1 0 0)" /><g clip-path="url(#cp13)" transform="matrix(1 0 0 1 0 0)"><rect x="717px" y="134px" width="23px" height="23px" fill="rgba(0,0,0,0.196)" /></g><g clip-path="url(#)" transform="matrix(1 0 0 1 0 0)" /><g clip-path="url(#cp14)" transform="matrix(1 0 0 1 0 0)"><path fill="none" d="M 738.8022 145.2234 C 738.8022 151.071  734.0618 155.8114  728.2142 155.8114  722.3666 155.8114  717.6262 151.071  717.6262 145.2234  717.6262 139.3757  722.3666 134.6353  728.2142 134.6353  734.0618 134.6353  738.8022 139.3757  738.8022 145.2234 z " stroke="rgba(0,0,0,0.051)" stroke-width="8px" stroke-dashoffset="0" stroke-linejoin="round" stroke-miterlimit="10" /><path fill="none" d="M 738.8022 145.2234 C 738.8022 151.071  734.0618 155.8114  728.2142 155.8114  722.3666 155.8114  717.6262 151.071  717.6262 145.2234  717.6262 139.3757  722.3666 134.6353  728.2142 134.6353  734.0618 134.6353  738.8022 139.3757  738.8022 145.2234 z " stroke="rgba(0,0,0,0.051)" stroke-width="6px" stroke-dashoffset="0" stroke-linejoin="round" stroke-miterlimit="10" /><path fill="none" d="M 738.8022 145.2234 C 738.8022 151.071  734.0618 155.8114  728.2142 155.8114  722.3666 155.8114  717.6262 151.071  717.6262 145.2234  717.6262 139.3757  722.3666 134.6353  728.2142 134.6353  734.0618 134.6353  738.8022 139.3757  738.8022 145.2234 z " stroke="rgba(0,0,0,0.051)" stroke-width="4px" stroke-dashoffset="0" stroke-linejoin="round" stroke-miterlimit="10" /><path fill="none" d="M 738.8022 145.2234 C 738.8022 151.071  734.0618 155.8114  728.2142 155.8114  722.3666 155.8114  717.6262 151.071  717.6262 145.2234  717.6262 139.3757  722.3666 134.6353  728.2142 134.6353  734.0618 134.6353  738.8022 139.3757  738.8022 145.2234 z " stroke="rgba(0,0,0,0.051)" stroke-width="2px" stroke-dashoffset="0" stroke-linejoin="round" stroke-miterlimit="10" /></g><g clip-path="url(#)" transform="matrix(1 0 0 1 0 0)"><ellipse cx="727.5px" cy="144.5px" rx="10.5px" ry="10.5px" fill="url(#fs9)" /></g><g clip-path="url(#cp15)" transform="matrix(1 0 0 1 0 0)"><path d="M 737.8024 140.694 C 727.2143 140.694  716.6262 140.694  716.6262 145.988 L 716.6262 133.6353  737.8024 133.6353  737.8024 140.694 z " fill="url(#fs10)" /></g><g clip-path="url(#)" transform="matrix(1 0 0 1 0 0)"><ellipse cx="727.5px" cy="144.5px" rx="10.5px" ry="10.5px" fill="none" stroke="#000000" stroke-width="1px" stroke-dashoffset="0" stroke-linejoin="round" stroke-miterlimit="10" /><text x="688px" y="182.556243896484px" font-family="Verdana" font-size="9.599999pt" font-weight="bold" fill="#000000">Store Data</text></g><g clip-path="url(#)" transform="matrix(1 0 0 1 0 0)" /><g clip-path="url(#)" transform="matrix(1 0 0 1 0 0)"><path fill="none" d="M 641.5 215 C 635.701 215  631 210.299  630.9999 204.5  630.9999 198.701  635.701 194  641.4999 194 " stroke="#000000" stroke-width="1px" stroke-dashoffset="0" stroke-linejoin="round" stroke-miterlimit="10" /><text x="610px" y="242.556243896484px" font-family="Verdana" font-size="9.599999pt" font-weight="bold" fill="#000000">Retrieve</text><text x="623px" y="258.556243896484px" font-family="Verdana" font-size="9.599999pt" font-weight="bold" fill="#000000">Data</text></g><g clip-path="url(#)" transform="matrix(1 0 0 1 0 0)" /><g clip-path="url(#)" transform="matrix(1 0 0 1 0 0)" /><g clip-path="url(#cp16)" transform="matrix(1 0 0 1 0 0)"><rect x="817px" y="332px" width="27px" height="27px" fill="rgba(0,0,0,0.196)" /></g><g clip-path="url(#)" transform="matrix(1 0 0 1 0 0)" /><g clip-path="url(#cp17)" transform="matrix(1 0 0 1 0 0)"><path fill="none" d="M 843.2068 345.7331 C 843.2068 352.6366  837.6103 358.2331  830.7068 358.2331  823.8032 358.2331  818.2068 352.6366  818.2068 345.7331  818.2068 338.8295  823.8032 333.2331  830.7068 333.2331  837.6103 333.2331  843.2068 338.8295  843.2068 345.7331 z " stroke="rgba(0,0,0,0.051)" stroke-width="8px" stroke-dashoffset="0" stroke-linejoin="round" stroke-miterlimit="10" /><path fill="none" d="M 843.2068 345.7331 C 843.2068 352.6366  837.6103 358.2331  830.7068 358.2331  823.8032 358.2331  818.2068 352.6366  818.2068 345.7331  818.2068 338.8295  823.8032 333.2331  830.7068 333.2331  837.6103 333.2331  843.2068 338.8295  843.2068 345.7331 z " stroke="rgba(0,0,0,0.051)" stroke-width="6px" stroke-dashoffset="0" stroke-linejoin="round" stroke-miterlimit="10" /><path fill="none" d="M 843.2068 345.7331 C 843.2068 352.6366  837.6103 358.2331  830.7068 358.2331  823.8032 358.2331  818.2068 352.6366  818.2068 345.7331  818.2068 338.8295  823.8032 333.2331  830.7068 333.2331  837.6103 333.2331  843.2068 338.8295  843.2068 345.7331 z " stroke="rgba(0,0,0,0.051)" stroke-width="4px" stroke-dashoffset="0" stroke-linejoin="round" stroke-miterlimit="10" /><path fill="none" d="M 843.2068 345.7331 C 843.2068 352.6366  837.6103 358.2331  830.7068 358.2331  823.8032 358.2331  818.2068 352.6366  818.2068 345.7331  818.2068 338.8295  823.8032 333.2331  830.7068 333.2331  837.6103 333.2331  843.2068 338.8295  843.2068 345.7331 z " stroke="rgba(0,0,0,0.051)" stroke-width="2px" stroke-dashoffset="0" stroke-linejoin="round" stroke-miterlimit="10" /></g><g clip-path="url(#)" transform="matrix(1 0 0 1 0 0)"><ellipse cx="829.5px" cy="344.5px" rx="12.5px" ry="12.5px" fill="url(#fs11)" /></g><g clip-path="url(#cp18)" transform="matrix(1 0 0 1 0 0)"><path d="M 842.2068 340.5664 C 829.7068 340.5664  817.2068 340.5664  817.2068 346.8164 L 817.2068 332.2331  842.2068 332.2331  842.2068 340.5664 z " fill="url(#fs12)" /></g><g clip-path="url(#)" transform="matrix(1 0 0 1 0 0)"><ellipse cx="829.5px" cy="344.5px" rx="12.5px" ry="12.5px" fill="none" stroke="#000000" stroke-width="1px" stroke-dashoffset="0" stroke-linejoin="round" stroke-miterlimit="10" /><text x="802px" y="383.556243896484px" font-family="Verdana" font-size="9.599999pt" font-weight="bold" fill="#000000">Display</text><text x="811px" y="399.556243896484px" font-family="Verdana" font-size="9.599999pt" font-weight="bold" fill="#000000">Data</text></g><g clip-path="url(#)" transform="matrix(1 0 0 1 0 0)" /><g clip-path="url(#)" transform="matrix(1 0 0 1 0 0)" /><g clip-path="url(#cp19)" transform="matrix(1 0 0 1 0 0)"><rect x="770px" y="116px" width="121px" height="115px" fill="rgba(0,0,0,0.196)" /></g><g clip-path="url(#)" transform="matrix(1 0 0 1 0 0)" /><g clip-path="url(#cp20)" transform="matrix(1 0 0 1 0 0)"><path fill="none" d="M 771.4136 117.4418 L 890 117.4418  890 230.3062  771.4136 230.3062 z " stroke="rgba(0,0,0,0.051)" stroke-width="8px" stroke-dashoffset="0" stroke-linejoin="round" stroke-miterlimit="10" /><path fill="none" d="M 771.4136 117.4418 L 890 117.4418  890 230.3062  771.4136 230.3062 z " stroke="rgba(0,0,0,0.051)" stroke-width="6px" stroke-dashoffset="0" stroke-linejoin="round" stroke-miterlimit="10" /><path fill="none" d="M 771.4136 117.4418 L 890 117.4418  890 230.3062  771.4136 230.3062 z " stroke="rgba(0,0,0,0.051)" stroke-width="4px" stroke-dashoffset="0" stroke-linejoin="round" stroke-miterlimit="10" /><path fill="none" d="M 771.4136 117.4418 L 890 117.4418  890 230.3062  771.4136 230.3062 z " stroke="rgba(0,0,0,0.051)" stroke-width="2px" stroke-dashoffset="0" stroke-linejoin="round" stroke-miterlimit="10" /></g><g clip-path="url(#)" transform="matrix(1 0 0 1 0 0)"><rect x="770px" y="116px" width="119px" height="113px" fill="url(#fs13)" /><path d="M 889 154.0633 C 829.7068 154.0633  770.4136 154.0633  770.4136 182.2794 L 770.4136 116.4418  889 116.4418  889 154.0633 z " fill="url(#fs14)" /><rect x="770px" y="116px" width="119px" height="113px" fill="none" stroke="#000000" stroke-width="1px" stroke-dashoffset="0" stroke-linejoin="round" stroke-miterlimit="10" /></g><g clip-path="url(#cp21)" transform="matrix(1 0 0 1 0 0)"><rect x="871px" y="124px" width="10px" height="15px" fill="#FFFFFF" /><rect x="871px" y="124px" width="10px" height="15px" fill="none" stroke="#000000" stroke-width="1px" stroke-dashoffset="0" stroke-linejoin="miter" stroke-miterlimit="10" /><rect x="869px" y="126px" width="6px" height="4px" fill="#FFFFFF" /><rect x="869px" y="126px" width="6px" height="4px" fill="none" stroke="#000000" stroke-width="1px" stroke-dashoffset="0" stroke-linejoin="miter" stroke-miterlimit="10" /><rect x="869px" y="132px" width="6px" height="4px" fill="#FFFFFF" /><rect x="869px" y="132px" width="6px" height="4px" fill="none" stroke="#000000" stroke-width="1px" stroke-dashoffset="0" stroke-linejoin="miter" stroke-miterlimit="10" /><text x="778px" y="163.000625610352px" font-family="Verdana" font-size="8.639999pt" font-style="italic" fill="#1E1E1E">«component»</text><text x="802px" y="181.556243896484px" font-family="Verdana" font-size="9.599999pt" font-weight="bold" fill="#000000">Data</text><text x="788px" y="196.556243896484px" font-family="Verdana" font-size="9.599999pt" font-weight="bold" fill="#000000">Manager</text></g><g clip-path="url(#)" transform="matrix(1 0 0 1 0 0)" /><g clip-path="url(#)" transform="matrix(1 0 0 1 0 0)" /><g clip-path="url(#)" transform="matrix(1 0 0 1 0 0)" /><g clip-path="url(#cp22)" transform="matrix(1 0 0 1 0 0)"><rect x="717px" y="196px" width="23px" height="23px" fill="rgba(0,0,0,0.196)" /></g><g clip-path="url(#)" transform="matrix(1 0 0 1 0 0)" /><g clip-path="url(#cp23)" transform="matrix(1 0 0 1 0 0)"><path fill="none" d="M 738.8022 208.0042 C 738.8022 213.8518  734.0618 218.5922  728.2142 218.5922  722.3666 218.5922  717.6262 213.8518  717.6262 208.0042  717.6262 202.1565  722.3666 197.4161  728.2142 197.4161  734.0618 197.4161  738.8022 202.1565  738.8022 208.0042 z " stroke="rgba(0,0,0,0.051)" stroke-width="8px" stroke-dashoffset="0" stroke-linejoin="round" stroke-miterlimit="10" /><path fill="none" d="M 738.8022 208.0042 C 738.8022 213.8518  734.0618 218.5922  728.2142 218.5922  722.3666 218.5922  717.6262 213.8518  717.6262 208.0042  717.6262 202.1565  722.3666 197.4161  728.2142 197.4161  734.0618 197.4161  738.8022 202.1565  738.8022 208.0042 z " stroke="rgba(0,0,0,0.051)" stroke-width="6px" stroke-dashoffset="0" stroke-linejoin="round" stroke-miterlimit="10" /><path fill="none" d="M 738.8022 208.0042 C 738.8022 213.8518  734.0618 218.5922  728.2142 218.5922  722.3666 218.5922  717.6262 213.8518  717.6262 208.0042  717.6262 202.1565  722.3666 197.4161  728.2142 197.4161  734.0618 197.4161  738.8022 202.1565  738.8022 208.0042 z " stroke="rgba(0,0,0,0.051)" stroke-width="4px" stroke-dashoffset="0" stroke-linejoin="round" stroke-miterlimit="10" /><path fill="none" d="M 738.8022 208.0042 C 738.8022 213.8518  734.0618 218.5922  728.2142 218.5922  722.3666 218.5922  717.6262 213.8518  717.6262 208.0042  717.6262 202.1565  722.3666 197.4161  728.2142 197.4161  734.0618 197.4161  738.8022 202.1565  738.8022 208.0042 z " stroke="rgba(0,0,0,0.051)" stroke-width="2px" stroke-dashoffset="0" stroke-linejoin="round" stroke-miterlimit="10" /></g><g clip-path="url(#)" transform="matrix(1 0 0 1 0 0)"><ellipse cx="727.5px" cy="206.5px" rx="10.5px" ry="10.5px" fill="url(#fs15)" /></g><g clip-path="url(#cp24)" transform="matrix(1 0 0 1 0 0)"><path d="M 737.8024 203.4748 C 727.2143 203.4748  716.6262 203.4748  716.6262 208.7689 L 716.6262 196.4161  737.8024 196.4161  737.8024 203.4748 z " fill="url(#fs16)" /></g><g clip-path="url(#)" transform="matrix(1 0 0 1 0 0)"><ellipse cx="727.5px" cy="206.5px" rx="10.5px" ry="10.5px" fill="none" stroke="#000000" stroke-width="1px" stroke-dashoffset="0" stroke-linejoin="round" stroke-miterlimit="10" /><text x="696px" y="244.556243896484px" font-family="Verdana" font-size="9.599999pt" font-weight="bold" fill="#000000">Retrieve</text><text x="709px" y="260.556243896484px" font-family="Verdana" font-size="9.599999pt" font-weight="bold" fill="#000000">Data</text></g><g clip-path="url(#)" transform="matrix(1 0 0 1 0 0)" /><g clip-path="url(#)" transform="matrix(1 0 0 1 0 0)"><path fill="none" d="M 641.7762 152.9964 C 635.9792 153.1489  631.1561 148.5732  631.0036 142.7762  630.8511 136.9792  635.4268 132.1562  641.2238 132.0036 " stroke="#000000" stroke-width="1px" stroke-dashoffset="0" stroke-linejoin="round" stroke-miterlimit="10" /><text x="603px" y="181.556243896484px" font-family="Verdana" font-size="9.599999pt" font-weight="bold" fill="#000000">Store Data</text></g><g clip-path="url(#)" transform="matrix(1 0 0 1 0 0)" /><g clip-path="url(#)" transform="matrix(1 0 0 1 0 0)" /><g clip-path="url(#cp25)" transform="matrix(1 0 0 1 0 0)"><rect x="363px" y="145px" width="23px" height="23px" fill="rgba(0,0,0,0.196)" /></g><g clip-path="url(#)" transform="matrix(1 0 0 1 0 0)" /><g clip-path="url(#cp26)" transform="matrix(1 0 0 1 0 0)"><path fill="none" d="M 385.0197 157.0778 C 385.0197 162.9254  380.2793 167.6658  374.4316 167.6658  368.584 167.6658  363.8436 162.9254  363.8436 157.0778  363.8436 151.2301  368.584 146.4897  374.4316 146.4897  380.2793 146.4897  385.0197 151.2301  385.0197 157.0778 z " stroke="rgba(0,0,0,0.051)" stroke-width="8px" stroke-dashoffset="0" stroke-linejoin="round" stroke-miterlimit="10" /><path fill="none" d="M 385.0197 157.0778 C 385.0197 162.9254  380.2793 167.6658  374.4316 167.6658  368.584 167.6658  363.8436 162.9254  363.8436 157.0778  363.8436 151.2301  368.584 146.4897  374.4316 146.4897  380.2793 146.4897  385.0197 151.2301  385.0197 157.0778 z " stroke="rgba(0,0,0,0.051)" stroke-width="6px" stroke-dashoffset="0" stroke-linejoin="round" stroke-miterlimit="10" /><path fill="none" d="M 385.0197 157.0778 C 385.0197 162.9254  380.2793 167.6658  374.4316 167.6658  368.584 167.6658  363.8436 162.9254  363.8436 157.0778  363.8436 151.2301  368.584 146.4897  374.4316 146.4897  380.2793 146.4897  385.0197 151.2301  385.0197 157.0778 z " stroke="rgba(0,0,0,0.051)" stroke-width="4px" stroke-dashoffset="0" stroke-linejoin="round" stroke-miterlimit="10" /><path fill="none" d="M 385.0197 157.0778 C 385.0197 162.9254  380.2793 167.6658  374.4316 167.6658  368.584 167.6658  363.8436 162.9254  363.8436 157.0778  363.8436 151.2301  368.584 146.4897  374.4316 146.4897  380.2793 146.4897  385.0197 151.2301  385.0197 157.0778 z " stroke="rgba(0,0,0,0.051)" stroke-width="2px" stroke-dashoffset="0" stroke-linejoin="round" stroke-miterlimit="10" /></g><g clip-path="url(#)" transform="matrix(1 0 0 1 0 0)"><ellipse cx="373.5px" cy="155.5px" rx="10.5px" ry="10.5px" fill="url(#fs17)" /></g><g clip-path="url(#cp27)" transform="matrix(1 0 0 1 0 0)"><path d="M 384.0197 152.5484 C 373.4317 152.5484  362.8436 152.5484  362.8436 157.8424 L 362.8436 145.4897  384.0197 145.4897  384.0197 152.5484 z " fill="url(#fs18)" /></g><g clip-path="url(#)" transform="matrix(1 0 0 1 0 0)"><ellipse cx="373.5px" cy="155.5px" rx="10.5px" ry="10.5px" fill="none" stroke="#000000" stroke-width="1px" stroke-dashoffset="0" stroke-linejoin="round" stroke-miterlimit="10" /><text x="343px" y="193.556243896484px" font-family="Verdana" font-size="9.599999pt" font-weight="bold" fill="#000000">Process </text><text x="355px" y="209.556243896484px" font-family="Verdana" font-size="9.599999pt" font-weight="bold" fill="#000000">Data</text></g><g clip-path="url(#)" transform="matrix(1 0 0 1 0 0)" /><g clip-path="url(#)" transform="matrix(1 0 0 1 0 0)" /><g clip-path="url(#cp28)" transform="matrix(1 0 0 1 0 0)"><rect x="422px" y="67px" width="173px" height="239px" fill="rgba(0,0,0,0.196)" /></g><g clip-path="url(#)" transform="matrix(1 0 0 1 0 0)" /><g clip-path="url(#cp29)" transform="matrix(1 0 0 1 0 0)"><path fill="none" d="M 423.1251 67.6658 L 594.1251 67.6658  594.1251 304.733  423.1251 304.733 z " stroke="rgba(0,0,0,0.051)" stroke-width="8px" stroke-dashoffset="0" stroke-linejoin="round" stroke-miterlimit="10" /><path fill="none" d="M 423.1251 67.6658 L 594.1251 67.6658  594.1251 304.733  423.1251 304.733 z " stroke="rgba(0,0,0,0.051)" stroke-width="6px" stroke-dashoffset="0" stroke-linejoin="round" stroke-miterlimit="10" /><path fill="none" d="M 423.1251 67.6658 L 594.1251 67.6658  594.1251 304.733  423.1251 304.733 z " stroke="rgba(0,0,0,0.051)" stroke-width="4px" stroke-dashoffset="0" stroke-linejoin="round" stroke-miterlimit="10" /><path fill="none" d="M 423.1251 67.6658 L 594.1251 67.6658  594.1251 304.733  423.1251 304.733 z " stroke="rgba(0,0,0,0.051)" stroke-width="2px" stroke-dashoffset="0" stroke-linejoin="round" stroke-miterlimit="10" /></g><g clip-path="url(#)" transform="matrix(1 0 0 1 0 0)"><rect x="422px" y="67px" width="171px" height="237px" fill="url(#fs19)" /><path d="M 593.1251 145.6882 C 507.6251 145.6882  422.1251 145.6882  422.1251 204.955 L 422.1251 66.6658  593.1251 66.6658  593.1251 145.6882 z " fill="url(#fs20)" /><rect x="422px" y="67px" width="171px" height="237px" fill="none" stroke="#000000" stroke-width="1px" stroke-dashoffset="0" stroke-linejoin="round" stroke-miterlimit="10" /></g><g clip-path="url(#cp30)" transform="matrix(1 0 0 1 0 0)"><rect x="575px" y="75px" width="10px" height="15px" fill="#FFFFFF" /><rect x="575px" y="75px" width="10px" height="15px" fill="none" stroke="#000000" stroke-width="1px" stroke-dashoffset="0" stroke-linejoin="miter" stroke-miterlimit="10" /><rect x="573px" y="77px" width="6px" height="4px" fill="#FFFFFF" /><rect x="573px" y="77px" width="6px" height="4px" fill="none" stroke="#000000" stroke-width="1px" stroke-dashoffset="0" stroke-linejoin="miter" stroke-miterlimit="10" /><rect x="573px" y="83px" width="6px" height="4px" fill="#FFFFFF" /><rect x="573px" y="83px" width="6px" height="4px" fill="none" stroke="#000000" stroke-width="1px" stroke-dashoffset="0" stroke-linejoin="miter" stroke-miterlimit="10" /><text x="456px" y="83.0006256103516px" font-family="Verdana" font-size="8.639999pt" font-style="italic" fill="#1E1E1E">«component»</text><text x="441px" y="100.556243896484px" font-family="Verdana" font-size="9.599999pt" font-weight="bold" fill="#000000">Data Processor</text><line x1="422px" y1="114px" x2="593px" y2="114px" stroke="#000000" stroke-width="1px" stroke-dashoffset="0" stroke-linejoin="round" stroke-miterlimit="10" /></g><g clip-path="url(#)" transform="matrix(1 0 0 1 0 0)" /><g clip-path="url(#)" transform="matrix(1 0 0 1 0 0)" /><g clip-path="url(#)" transform="matrix(1 0 0 1 0 0)" /><g clip-path="url(#cp31)" transform="matrix(1 0 0 1 0 0)"><rect x="449px" y="118px" width="121px" height="67px" fill="rgba(0,0,0,0.196)" /></g><g clip-path="url(#)" transform="matrix(1 0 0 1 0 0)" /><g clip-path="url(#cp32)" transform="matrix(1 0 0 1 0 0)"><path fill="none" d="M 449.8071 119.1602 L 568.3935 119.1602  568.3935 183.7045  449.8071 183.7045 z " stroke="rgba(0,0,0,0.051)" stroke-width="8px" stroke-dashoffset="0" stroke-linejoin="round" stroke-miterlimit="10" /><path fill="none" d="M 449.8071 119.1602 L 568.3935 119.1602  568.3935 183.7045  449.8071 183.7045 z " stroke="rgba(0,0,0,0.051)" stroke-width="6px" stroke-dashoffset="0" stroke-linejoin="round" stroke-miterlimit="10" /><path fill="none" d="M 449.8071 119.1602 L 568.3935 119.1602  568.3935 183.7045  449.8071 183.7045 z " stroke="rgba(0,0,0,0.051)" stroke-width="4px" stroke-dashoffset="0" stroke-linejoin="round" stroke-miterlimit="10" /><path fill="none" d="M 449.8071 119.1602 L 568.3935 119.1602  568.3935 183.7045  449.8071 183.7045 z " stroke="rgba(0,0,0,0.051)" stroke-width="2px" stroke-dashoffset="0" stroke-linejoin="round" stroke-miterlimit="10" /></g><g clip-path="url(#)" transform="matrix(1 0 0 1 0 0)"><rect x="449px" y="118px" width="119px" height="65px" fill="url(#fs21)" /><path d="M 567.3935 139.675 C 508.1003 139.675  448.8071 139.675  448.8071 155.811 L 448.8071 118.1602  567.3935 118.1602  567.3935 139.675 z " fill="url(#fs22)" /><rect x="449px" y="118px" width="119px" height="65px" fill="none" stroke="#000000" stroke-width="1px" stroke-dashoffset="0" stroke-linejoin="round" stroke-miterlimit="10" /></g><g clip-path="url(#cp33)" transform="matrix(1 0 0 1 0 0)"><rect x="549px" y="126px" width="10px" height="15px" fill="#FFFFFF" /><rect x="549px" y="126px" width="10px" height="15px" fill="none" stroke="#000000" stroke-width="1px" stroke-dashoffset="0" stroke-linejoin="miter" stroke-miterlimit="10" /><rect x="547px" y="128px" width="6px" height="4px" fill="#FFFFFF" /><rect x="547px" y="128px" width="6px" height="4px" fill="none" stroke="#000000" stroke-width="1px" stroke-dashoffset="0" stroke-linejoin="miter" stroke-miterlimit="10" /><rect x="547px" y="134px" width="6px" height="4px" fill="#FFFFFF" /><rect x="547px" y="134px" width="6px" height="4px" fill="none" stroke="#000000" stroke-width="1px" stroke-dashoffset="0" stroke-linejoin="miter" stroke-miterlimit="10" /><text x="457px" y="140.000625610352px" font-family="Verdana" font-size="8.639999pt" font-style="italic" fill="#1E1E1E">«component»</text><text x="463px" y="157.556243896484px" font-family="Verdana" font-size="9.599999pt" font-weight="bold" fill="#000000">Predicate </text><text x="455px" y="173.556243896484px" font-family="Verdana" font-size="9.599999pt" font-weight="bold" fill="#000000">Constructor</text></g><g clip-path="url(#)" transform="matrix(1 0 0 1 0 0)" /><g clip-path="url(#)" transform="matrix(1 0 0 1 0 0)" /><g clip-path="url(#)" transform="matrix(1 0 0 1 0 0)" /><g clip-path="url(#cp34)" transform="matrix(1 0 0 1 0 0)"><rect x="449px" y="212px" width="121px" height="73px" fill="rgba(0,0,0,0.196)" /></g><g clip-path="url(#)" transform="matrix(1 0 0 1 0 0)" /><g clip-path="url(#cp35)" transform="matrix(1 0 0 1 0 0)"><path fill="none" d="M 449.8071 212.9423 L 568.3935 212.9423  568.3935 283.5569  449.8071 283.5569 z " stroke="rgba(0,0,0,0.051)" stroke-width="8px" stroke-dashoffset="0" stroke-linejoin="round" stroke-miterlimit="10" /><path fill="none" d="M 449.8071 212.9423 L 568.3935 212.9423  568.3935 283.5569  449.8071 283.5569 z " stroke="rgba(0,0,0,0.051)" stroke-width="6px" stroke-dashoffset="0" stroke-linejoin="round" stroke-miterlimit="10" /><path fill="none" d="M 449.8071 212.9423 L 568.3935 212.9423  568.3935 283.5569  449.8071 283.5569 z " stroke="rgba(0,0,0,0.051)" stroke-width="4px" stroke-dashoffset="0" stroke-linejoin="round" stroke-miterlimit="10" /><path fill="none" d="M 449.8071 212.9423 L 568.3935 212.9423  568.3935 283.5569  449.8071 283.5569 z " stroke="rgba(0,0,0,0.051)" stroke-width="2px" stroke-dashoffset="0" stroke-linejoin="round" stroke-miterlimit="10" /></g><g clip-path="url(#)" transform="matrix(1 0 0 1 0 0)"><rect x="449px" y="212px" width="119px" height="71px" fill="url(#fs23)" /><path d="M 567.3935 235.4805 C 508.1003 235.4805  448.8071 235.4805  448.8071 253.1341 L 448.8071 211.9423  567.3935 211.9423  567.3935 235.4805 z " fill="url(#fs24)" /><rect x="449px" y="212px" width="119px" height="71px" fill="none" stroke="#000000" stroke-width="1px" stroke-dashoffset="0" stroke-linejoin="round" stroke-miterlimit="10" /></g><g clip-path="url(#cp36)" transform="matrix(1 0 0 1 0 0)"><rect x="549px" y="220px" width="10px" height="15px" fill="#FFFFFF" /><rect x="549px" y="220px" width="10px" height="15px" fill="none" stroke="#000000" stroke-width="1px" stroke-dashoffset="0" stroke-linejoin="miter" stroke-miterlimit="10" /><rect x="547px" y="222px" width="6px" height="4px" fill="#FFFFFF" /><rect x="547px" y="222px" width="6px" height="4px" fill="none" stroke="#000000" stroke-width="1px" stroke-dashoffset="0" stroke-linejoin="miter" stroke-miterlimit="10" /><rect x="547px" y="228px" width="6px" height="4px" fill="#FFFFFF" /><rect x="547px" y="228px" width="6px" height="4px" fill="none" stroke="#000000" stroke-width="1px" stroke-dashoffset="0" stroke-linejoin="miter" stroke-miterlimit="10" /><text x="457px" y="237.000625610352px" font-family="Verdana" font-size="8.639999pt" font-style="italic" fill="#1E1E1E">«component»</text><text x="462px" y="255.556243896484px" font-family="Verdana" font-size="9.599999pt" font-weight="bold" fill="#000000">Transition</text><text x="461px" y="270.556243896484px" font-family="Verdana" font-size="9.599999pt" font-weight="bold" fill="#000000">Generator</text></g><g clip-path="url(#)" transform="matrix(1 0 0 1 0 0)" /><g clip-path="url(#)" transform="matrix(1 0 0 1 0 0)" /><g clip-path="url(#)" transform="matrix(1 0 0 1 0 0)"><polyline points="422,155 384,156 " fill="none" stroke="#000000" stroke-width="1px" stroke-dashoffset="0" stroke-linejoin="round" stroke-miterlimit="10" /></g><g clip-path="url(#)" transform="matrix(1 0 0 1 0 0)" /><g clip-path="url(#)" transform="matrix(1 0 0 1 0 0)"><polyline points="593,144 631,143 " fill="none" stroke="#000000" stroke-width="1px" stroke-dashoffset="0" stroke-linejoin="round" stroke-miterlimit="10" /></g><g clip-path="url(#)" transform="matrix(1 0 0 1 0 0)" /><g clip-path="url(#)" transform="matrix(1 0 0 1 0 0)"><polyline points="593,205 631,205 " fill="none" stroke="#000000" stroke-width="1px" stroke-dashoffset="0" stroke-linejoin="round" stroke-miterlimit="10" /></g><g clip-path="url(#)" transform="matrix(1 0 0 1 0 0)" /><g clip-path="url(#)" transform="matrix(1 0 0 1 0 0)"><polyline points="770,206 738,207 " fill="none" stroke="#000000" stroke-width="1px" stroke-dashoffset="0" stroke-linejoin="round" stroke-miterlimit="10" /></g><g clip-path="url(#)" transform="matrix(1 0 0 1 0 0)" /><g clip-path="url(#)" transform="matrix(1 0 0 1 0 0)"><polyline points="830,229 830,332 " fill="none" stroke="#000000" stroke-width="1px" stroke-dashoffset="0" stroke-linejoin="round" stroke-miterlimit="10" /></g><g clip-path="url(#)" transform="matrix(1 0 0 1 0 0)" /><g clip-path="url(#)" transform="matrix(1 0 0 1 0 0)"><polyline points="770,143 738,144 " fill="none" stroke="#000000" stroke-width="1px" stroke-dashoffset="0" stroke-linejoin="round" stroke-miterlimit="10" /></g><g clip-path="url(#)" transform="matrix(1 0 0 1 0 0)" /><g clip-path="url(#)" transform="matrix(1 0 0 1 0 0)"><polyline points="179,229 179,283 " fill="none" stroke="#000000" stroke-width="1px" stroke-dashoffset="0" stroke-linejoin="round" stroke-miterlimit="10" /></g><g clip-path="url(#)" transform="matrix(1 0 0 1 0 0)" /><g clip-path="url(#)" transform="matrix(1 0 0 1 0 0)"><polyline points="238,156 295,156 " fill="none" stroke="#000000" stroke-width="1px" stroke-dashoffset="0" stroke-linejoin="round" stroke-miterlimit="10" /></g></svg>