<?xml version="1.0" encoding="utf-8" standalone="no"?><!DOCTYPE svg PUBLIC "-//W3C//DTD SVG 1.1//EN" "http://www.w3.org/Graphics/SVG/1.1/DTD/svg11.dtd"><svg width="358px" height="270px" version="1.1" xmlns="http://www.w3.org/2000/svg" xmlns:xlink="http://www.w3.org/1999/xlink"><desc /><defs><linearGradient id="fs1" x1="0.49999988079071px" y1="-0.500000059604645px" x2="1.49999964237213px" y2="0.499999731779099px"><stop offset="0%" stop-color="#FFFFFF" stop-opacity="1" /><stop offset="100%" stop-color="#EBEBEB" stop-opacity="1" /></linearGradient><linearGradient id="fs2" x1="0.99999988079071px" y1="-9.16994569166718E-09px" x2="0.999999821186066px" y2="0.99999988079071px"><stop offset="0%" stop-color="#FFFFFF" stop-opacity="0.5490196" /><stop offset="100%" stop-color="#FFFFFF" stop-opacity="0.1568628" /></linearGradient><linearGradient id="fs3" x1="0.49999937415123px" y1="-0.500000357627869px" x2="1.49999928474426px" y2="0.499999314546585px"><stop offset="0%" stop-color="#FFFFFF" stop-opacity="1" /><stop offset="100%" stop-color="#EBEBEB" stop-opacity="1" /></linearGradient><linearGradient id="fs4" x1="0.999999225139618px" y1="-5.868765242667E-07px" x2="0.999999225139618px" y2="0.999999403953552px"><stop offset="0%" stop-color="#FFFFFF" stop-opacity="0.5490196" /><stop offset="100%" stop-color="#FFFFFF" stop-opacity="0.1568628" /></linearGradient><linearGradient id="fs5" x1="0.499997973442078px" y1="-0.500000596046448px" x2="1.49999749660492px" y2="0.499999076128006px"><stop offset="0%" stop-color="#FFFFFF" stop-opacity="1" /><stop offset="100%" stop-color="#EBEBEB" stop-opacity="1" /></linearGradient><linearGradient id="fs6" x1="0.999999225139618px" y1="-3.28853218434233E-07px" x2="0.999998986721039px" y2="0.999999463558197px"><stop offset="0%" stop-color="#FFFFFF" stop-opacity="0.5490196" /><stop offset="100%" stop-color="#FFFFFF" stop-opacity="0.1568628" /></linearGradient><linearGradient id="fs7" x1="0.499997705221176px" y1="-0.500001013278961px" x2="1.49999749660492px" y2="0.49999862909317px"><stop offset="0%" stop-color="#FFFFFF" stop-opacity="1" /><stop offset="100%" stop-color="#EBEBEB" stop-opacity="1" /></linearGradient><linearGradient id="fs8" x1="0.999998450279236px" y1="-5.868765242667E-07px" x2="0.999998211860657px" y2="0.999999105930328px"><stop offset="0%" stop-color="#FFFFFF" stop-opacity="0.5490196" /><stop offset="100%" stop-color="#FFFFFF" stop-opacity="0.1568628" /></linearGradient><clipPath id="cp1"><path d="M 125 50 C 125 74.85278  98.13707 95  65 95  31.86292 95  5 74.85278  5 50  5 25.14719  31.86292 5  65 5  98.13707 5  125 25.14719  125 50 z " /></clipPath><clipPath id="cp2" clip-rule="evenodd"><path d="M -30000 -30000 L 30000 -30000  30000 30000  -30000 30000 z M 125 50 C 125 74.85278  98.13707 95  65 95  31.86292 95  5 74.85278  5 50  5 25.14719  31.86292 5  65 5  98.13707 5  125 25.14719  125 50 z " /></clipPath><clipPath id="cp3"><path d="M 124 49 C 124 73.85281  97.13708 94  64 94  30.86292 94  4 73.85281  4 49  4 24.14719  30.86292 4  64 4  97.13708 4  124 24.14719  124 49 z " /></clipPath><clipPath id="cp4"><path d="M 125 211 C 125 235.8528  98.13707 256  65 256  31.86292 256  5 235.8528  5 211  5 186.1472  31.86292 166  65 166  98.13707 166  125 186.1472  125 211 z " /></clipPath><clipPath id="cp5" clip-rule="evenodd"><path d="M -30000 -30000 L 30000 -30000  30000 30000  -30000 30000 z M 125 211 C 125 235.8528  98.13707 256  65 256  31.86292 256  5 235.8528  5 211  5 186.1472  31.86292 166  65 166  98.13707 166  125 186.1472  125 211 z " /></clipPath><clipPath id="cp6"><path d="M 124 210 C 124 234.8528  97.13708 255  64 255  30.86292 255  4 234.8528  4 210  4 185.1472  30.86292 165  64 165  97.13708 165  124 185.1472  124 210 z " /></clipPath><clipPath id="cp7"><path d="M 224 25 L 344 25  344 75  224 75 z " /></clipPath><clipPath id="cp8" clip-rule="evenodd"><path d="M -30000 -30000 L 30000 -30000  30000 30000  -30000 30000 z M 224 25 L 344 25  344 75  224 75 z " /></clipPath><clipPath id="cp9"><path d="M 344 211 C 344 235.8528  317.1371 256  284 256  250.8629 256  224 235.8528  224 211  224 186.1472  250.8629 166  284 166  317.1371 166  344 186.1472  344 211 z " /></clipPath><clipPath id="cp10" clip-rule="evenodd"><path d="M -30000 -30000 L 30000 -30000  30000 30000  -30000 30000 z M 344 211 C 344 235.8528  317.1371 256  284 256  250.8629 256  224 235.8528  224 211  224 186.1472  250.8629 166  284 166  317.1371 166  344 186.1472  344 211 z " /></clipPath><clipPath id="cp11"><path d="M 343 210 C 343 234.8528  316.1371 255  283 255  249.8629 255  223 234.8528  223 210  223 185.1472  249.8629 165  283 165  316.1371 165  343 185.1472  343 210 z " /></clipPath></defs><g clip-path="url(#)" transform="matrix(1 0 0 1 0 0)" /><g clip-path="url(#cp1)" transform="matrix(1 0 0 1 0 0)"><rect x="4px" y="4px" width="122px" height="92px" fill="rgba(0,0,0,0.196)" /></g><g clip-path="url(#)" transform="matrix(1 0 0 1 0 0)" /><g clip-path="url(#cp2)" transform="matrix(1 0 0 1 0 0)"><path fill="none" d="M 125 50 C 125 74.85278  98.13707 95  65 95  31.86292 95  5 74.85278  5 50  5 25.14719  31.86292 5  65 5  98.13707 5  125 25.14719  125 50 z " stroke="rgba(0,0,0,0.051)" stroke-width="8px" stroke-dashoffset="0" stroke-linejoin="round" stroke-miterlimit="10" /><path fill="none" d="M 125 50 C 125 74.85278  98.13707 95  65 95  31.86292 95  5 74.85278  5 50  5 25.14719  31.86292 5  65 5  98.13707 5  125 25.14719  125 50 z " stroke="rgba(0,0,0,0.051)" stroke-width="6px" stroke-dashoffset="0" stroke-linejoin="round" stroke-miterlimit="10" /><path fill="none" d="M 125 50 C 125 74.85278  98.13707 95  65 95  31.86292 95  5 74.85278  5 50  5 25.14719  31.86292 5  65 5  98.13707 5  125 25.14719  125 50 z " stroke="rgba(0,0,0,0.051)" stroke-width="4px" stroke-dashoffset="0" stroke-linejoin="round" stroke-miterlimit="10" /><path fill="none" d="M 125 50 C 125 74.85278  98.13707 95  65 95  31.86292 95  5 74.85278  5 50  5 25.14719  31.86292 5  65 5  98.13707 5  125 25.14719  125 50 z " stroke="rgba(0,0,0,0.051)" stroke-width="2px" stroke-dashoffset="0" stroke-linejoin="round" stroke-miterlimit="10" /></g><g clip-path="url(#)" transform="matrix(1 0 0 1 0 0)"><ellipse cx="64px" cy="49px" rx="60px" ry="45px" fill="url(#fs1)" /></g><g clip-path="url(#cp3)" transform="matrix(1 0 0 1 0 0)"><path d="M 124 34 C 64 34  4 34  4 56.5 L 4 4  124 4  124 34 z " fill="url(#fs2)" /></g><g clip-path="url(#)" transform="matrix(1 0 0 1 0 0)"><ellipse cx="64px" cy="49px" rx="60px" ry="45px" fill="none" stroke="#000000" stroke-width="1px" stroke-dashoffset="0" stroke-linejoin="round" stroke-miterlimit="10" /><text x="25px" y="56.5562477111816px" font-family="Verdana" font-size="9.599999pt" font-weight="bold" fill="#000000">Simulation</text></g><g clip-path="url(#)" transform="matrix(1 0 0 1 0 0)" /><g clip-path="url(#)" transform="matrix(1 0 0 1 0 0)" /><g clip-path="url(#cp4)" transform="matrix(1 0 0 1 0 0)"><rect x="4px" y="165px" width="122px" height="92px" fill="rgba(0,0,0,0.196)" /></g><g clip-path="url(#)" transform="matrix(1 0 0 1 0 0)" /><g clip-path="url(#cp5)" transform="matrix(1 0 0 1 0 0)"><path fill="none" d="M 125 211 C 125 235.8528  98.13707 256  65 256  31.86292 256  5 235.8528  5 211  5 186.1472  31.86292 166  65 166  98.13707 166  125 186.1472  125 211 z " stroke="rgba(0,0,0,0.051)" stroke-width="8px" stroke-dashoffset="0" stroke-linejoin="round" stroke-miterlimit="10" /><path fill="none" d="M 125 211 C 125 235.8528  98.13707 256  65 256  31.86292 256  5 235.8528  5 211  5 186.1472  31.86292 166  65 166  98.13707 166  125 186.1472  125 211 z " stroke="rgba(0,0,0,0.051)" stroke-width="6px" stroke-dashoffset="0" stroke-linejoin="round" stroke-miterlimit="10" /><path fill="none" d="M 125 211 C 125 235.8528  98.13707 256  65 256  31.86292 256  5 235.8528  5 211  5 186.1472  31.86292 166  65 166  98.13707 166  125 186.1472  125 211 z " stroke="rgba(0,0,0,0.051)" stroke-width="4px" stroke-dashoffset="0" stroke-linejoin="round" stroke-miterlimit="10" /><path fill="none" d="M 125 211 C 125 235.8528  98.13707 256  65 256  31.86292 256  5 235.8528  5 211  5 186.1472  31.86292 166  65 166  98.13707 166  125 186.1472  125 211 z " stroke="rgba(0,0,0,0.051)" stroke-width="2px" stroke-dashoffset="0" stroke-linejoin="round" stroke-miterlimit="10" /></g><g clip-path="url(#)" transform="matrix(1 0 0 1 0 0)"><ellipse cx="64px" cy="210px" rx="60px" ry="45px" fill="url(#fs3)" /></g><g clip-path="url(#cp6)" transform="matrix(1 0 0 1 0 0)"><path d="M 124 195 C 64 195  4 195  4 217.5 L 4 165  124 165  124 195 z " fill="url(#fs4)" /></g><g clip-path="url(#)" transform="matrix(1 0 0 1 0 0)"><ellipse cx="64px" cy="210px" rx="60px" ry="45px" fill="none" stroke="#000000" stroke-width="1px" stroke-dashoffset="0" stroke-linejoin="round" stroke-miterlimit="10" /><text x="7px" y="217.556243896484px" font-family="Verdana" font-size="9.599999pt" font-weight="bold" fill="#000000">Data Processor</text></g><g clip-path="url(#)" transform="matrix(1 0 0 1 0 0)" /><g clip-path="url(#)" transform="matrix(1 0 0 1 0 0)" /><g clip-path="url(#cp7)" transform="matrix(1 0 0 1 0 0)"><rect x="223px" y="24px" width="122px" height="52px" fill="rgba(0,0,0,0.196)" /></g><g clip-path="url(#)" transform="matrix(1 0 0 1 0 0)" /><g clip-path="url(#cp8)" transform="matrix(1 0 0 1 0 0)"><path fill="none" d="M 224 25 L 344 25  344 75  224 75 z " stroke="rgba(0,0,0,0.051)" stroke-width="8px" stroke-dashoffset="0" stroke-linejoin="round" stroke-miterlimit="10" /><path fill="none" d="M 224 25 L 344 25  344 75  224 75 z " stroke="rgba(0,0,0,0.051)" stroke-width="6px" stroke-dashoffset="0" stroke-linejoin="round" stroke-miterlimit="10" /><path fill="none" d="M 224 25 L 344 25  344 75  224 75 z " stroke="rgba(0,0,0,0.051)" stroke-width="4px" stroke-dashoffset="0" stroke-linejoin="round" stroke-miterlimit="10" /><path fill="none" d="M 224 25 L 344 25  344 75  224 75 z " stroke="rgba(0,0,0,0.051)" stroke-width="2px" stroke-dashoffset="0" stroke-linejoin="round" stroke-miterlimit="10" /></g><g clip-path="url(#)" transform="matrix(1 0 0 1 0 0)"><rect x="223px" y="24px" width="120px" height="50px" fill="url(#fs5)" /><path d="M 343 40.66667 C 283 40.66667  223 40.66667  223 53.16667 L 223 24  343 24  343 40.66667 z " fill="url(#fs6)" /><line x1="223px" y1="24px" x2="343px" y2="24px" stroke="#000000" stroke-width="1px" stroke-dashoffset="0" stroke-linejoin="round" stroke-miterlimit="10" /><line x1="223px" y1="74px" x2="343px" y2="74px" stroke="#000000" stroke-width="1px" stroke-dashoffset="0" stroke-linejoin="round" stroke-miterlimit="10" /><text x="234px" y="56.5562477111816px" font-family="Verdana" font-size="9.599999pt" font-weight="bold" fill="#000000">Data Storage</text></g><g clip-path="url(#)" transform="matrix(1 0 0 1 0 0)" /><g clip-path="url(#)" transform="matrix(1 0 0 1 0 0)" /><g clip-path="url(#cp9)" transform="matrix(1 0 0 1 0 0)"><rect x="223px" y="165px" width="122px" height="92px" fill="rgba(0,0,0,0.196)" /></g><g clip-path="url(#)" transform="matrix(1 0 0 1 0 0)" /><g clip-path="url(#cp10)" transform="matrix(1 0 0 1 0 0)"><path fill="none" d="M 344 211 C 344 235.8528  317.1371 256  284 256  250.8629 256  224 235.8528  224 211  224 186.1472  250.8629 166  284 166  317.1371 166  344 186.1472  344 211 z " stroke="rgba(0,0,0,0.051)" stroke-width="8px" stroke-dashoffset="0" stroke-linejoin="round" stroke-miterlimit="10" /><path fill="none" d="M 344 211 C 344 235.8528  317.1371 256  284 256  250.8629 256  224 235.8528  224 211  224 186.1472  250.8629 166  284 166  317.1371 166  344 186.1472  344 211 z " stroke="rgba(0,0,0,0.051)" stroke-width="6px" stroke-dashoffset="0" stroke-linejoin="round" stroke-miterlimit="10" /><path fill="none" d="M 344 211 C 344 235.8528  317.1371 256  284 256  250.8629 256  224 235.8528  224 211  224 186.1472  250.8629 166  284 166  317.1371 166  344 186.1472  344 211 z " stroke="rgba(0,0,0,0.051)" stroke-width="4px" stroke-dashoffset="0" stroke-linejoin="round" stroke-miterlimit="10" /><path fill="none" d="M 344 211 C 344 235.8528  317.1371 256  284 256  250.8629 256  224 235.8528  224 211  224 186.1472  250.8629 166  284 166  317.1371 166  344 186.1472  344 211 z " stroke="rgba(0,0,0,0.051)" stroke-width="2px" stroke-dashoffset="0" stroke-linejoin="round" stroke-miterlimit="10" /></g><g clip-path="url(#)" transform="matrix(1 0 0 1 0 0)"><ellipse cx="283px" cy="210px" rx="60px" ry="45px" fill="url(#fs7)" /></g><g clip-path="url(#cp11)" transform="matrix(1 0 0 1 0 0)"><path d="M 343 195 C 283 195  223 195  223 217.5 L 223 165  343 165  343 195 z " fill="url(#fs8)" /></g><g clip-path="url(#)" transform="matrix(1 0 0 1 0 0)"><ellipse cx="283px" cy="210px" rx="60px" ry="45px" fill="none" stroke="#000000" stroke-width="1px" stroke-dashoffset="0" stroke-linejoin="round" stroke-miterlimit="10" /><text x="231px" y="217.556243896484px" font-family="Verdana" font-size="9.599999pt" font-weight="bold" fill="#000000">Data Manager</text></g><g clip-path="url(#)" transform="matrix(1 0 0 1 0 0)" /><g clip-path="url(#)" transform="matrix(1 0 0 1 0 0)"><polyline points="64,94 64,165 " fill="none" stroke="#000000" stroke-width="1px" stroke-dashoffset="0" stroke-linejoin="round" stroke-miterlimit="10" /><polygon points="64,165 70,146 58,146 " fill="#000000" /><polygon fill="none" points="64,165 70,146 58,146 " stroke="#000000" stroke-width="1px" stroke-dashoffset="0" stroke-linejoin="round" stroke-miterlimit="10" /><text x="6px" y="124.024993896484px" font-family="Segoe UI" font-size="9.599999pt" fill="#000000">Raw Step Data</text></g><g clip-path="url(#)" transform="matrix(1 0 0 1 0 0)" /><g clip-path="url(#)" transform="matrix(1 0 0 1 0 0)"><polyline points="124,210 223,210 " fill="none" stroke="#000000" stroke-width="1px" stroke-dashoffset="0" stroke-linejoin="round" stroke-miterlimit="10" /><polygon points="223,210 204,204 204,216 " fill="#000000" /><polygon fill="none" points="223,210 204,204 204,216 " stroke="#000000" stroke-width="1px" stroke-dashoffset="0" stroke-linejoin="round" stroke-miterlimit="10" /><text x="112px" y="203.024993896484px" font-family="Segoe UI" font-size="9.599999pt" fill="#000000">Transition Data</text></g><g clip-path="url(#)" transform="matrix(1 0 0 1 0 0)" /><g clip-path="url(#)" transform="matrix(1 0 0 1 0 0)"><polyline points="283,165 283,74 " fill="none" stroke="#000000" stroke-width="1px" stroke-dashoffset="0" stroke-linejoin="round" stroke-miterlimit="10" /><polygon points="283,74 277,93 289,93 " fill="#000000" /><polygon fill="none" points="283,74 277,93 289,93 " stroke="#000000" stroke-width="1px" stroke-dashoffset="0" stroke-linejoin="round" stroke-miterlimit="10" /><text x="230px" y="126.024993896484px" font-family="Segoe UI" font-size="9.599999pt" fill="#000000">Transition Data</text></g></svg>