<?xml version="1.0" encoding="utf-8" standalone="no"?><!DOCTYPE svg PUBLIC "-//W3C//DTD SVG 1.1//EN" "http://www.w3.org/Graphics/SVG/1.1/DTD/svg11.dtd"><svg width="604px" height="846px" version="1.1" xmlns="http://www.w3.org/2000/svg" xmlns:xlink="http://www.w3.org/1999/xlink"><desc /><defs><linearGradient id="fs1" x1="0.499996691942215px" y1="-0.500001311302185px" x2="1.49999618530273px" y2="0.499998241662979px"><stop offset="0%" stop-color="#FFFFFF" stop-opacity="1" /><stop offset="100%" stop-color="#EBEBEB" stop-opacity="1" /></linearGradient><linearGradient id="fs2" x1="0.999998450279236px" y1="-9.30413989408407E-07px" x2="0.999997973442078px" y2="0.999998509883881px"><stop offset="0%" stop-color="#FFFFFF" stop-opacity="0.5490196" /><stop offset="100%" stop-color="#FFFFFF" stop-opacity="0.1568628" /></linearGradient><linearGradient id="fs3" x1="0.499995917081833px" y1="-0.500001728534698px" x2="1.499995470047px" y2="0.49999737739563px"><stop offset="0%" stop-color="#FFFFFF" stop-opacity="1" /><stop offset="100%" stop-color="#EBEBEB" stop-opacity="1" /></linearGradient><linearGradient id="fs4" x1="0.999997138977051px" y1="-9.30413989408407E-07px" x2="0.999996721744537px" y2="0.999998867511749px"><stop offset="0%" stop-color="#FFFFFF" stop-opacity="0.5490196" /><stop offset="100%" stop-color="#FFFFFF" stop-opacity="0.1568628" /></linearGradient><linearGradient id="fs5" x1="0.499998211860657px" y1="-0.500000536441803px" x2="1.4999977350235px" y2="0.499998480081558px"><stop offset="0%" stop-color="#FFFFFF" stop-opacity="1" /><stop offset="100%" stop-color="#EBEBEB" stop-opacity="1" /></linearGradient><linearGradient id="fs6" x1="0.999998986721039px" y1="-9.30413989408407E-07px" x2="0.999998450279236px" y2="0.999998867511749px"><stop offset="0%" stop-color="#FFFFFF" stop-opacity="0.5490196" /><stop offset="100%" stop-color="#FFFFFF" stop-opacity="0.1568628" /></linearGradient><linearGradient id="fs7" x1="0.499994158744812px" y1="-0.500003039836884px" x2="1.49999368190765px" y2="0.499996066093445px"><stop offset="0%" stop-color="#FFFFFF" stop-opacity="1" /><stop offset="100%" stop-color="#EBEBEB" stop-opacity="1" /></linearGradient><linearGradient id="fs8" x1="0.999997973442078px" y1="-3.72165595763363E-06px" x2="0.999996960163116px" y2="0.999996304512024px"><stop offset="0%" stop-color="#FFFFFF" stop-opacity="0.5490196" /><stop offset="100%" stop-color="#FFFFFF" stop-opacity="0.1568628" /></linearGradient><linearGradient id="fs9" x1="0.499989837408066px" y1="-0.500003933906555px" x2="1.49998927116394px" y2="0.499995201826096px"><stop offset="0%" stop-color="#FFFFFF" stop-opacity="1" /><stop offset="100%" stop-color="#EBEBEB" stop-opacity="1" /></linearGradient><linearGradient id="fs10" x1="0.999995946884155px" y1="-2.97732458420796E-06px" x2="0.999994933605194px" y2="0.999997019767761px"><stop offset="0%" stop-color="#FFFFFF" stop-opacity="0.5490196" /><stop offset="100%" stop-color="#FFFFFF" stop-opacity="0.1568628" /></linearGradient><linearGradient id="fs11" x1="0.499996453523636px" y1="-0.500001728534698px" x2="1.49999594688416px" y2="0.49999737739563px"><stop offset="0%" stop-color="#FFFFFF" stop-opacity="1" /><stop offset="100%" stop-color="#EBEBEB" stop-opacity="1" /></linearGradient><linearGradient id="fs12" x1="0.999995946884155px" y1="-2.97732458420796E-06px" x2="0.999995410442352px" y2="0.999996304512024px"><stop offset="0%" stop-color="#FFFFFF" stop-opacity="0.5490196" /><stop offset="100%" stop-color="#FFFFFF" stop-opacity="0.1568628" /></linearGradient><linearGradient id="fs13" x1="0.49999338388443px" y1="-0.500006079673767px" x2="1.49999284744263px" y2="0.499992161989212px"><stop offset="0%" stop-color="#FFFFFF" stop-opacity="1" /><stop offset="100%" stop-color="#EBEBEB" stop-opacity="1" /></linearGradient><linearGradient id="fs14" x1="0.999996960163116px" y1="-1.48866238305345E-05px" x2="0.999995946884155px" y2="0.999985098838806px"><stop offset="0%" stop-color="#FFFFFF" stop-opacity="0.5490196" /><stop offset="100%" stop-color="#FFFFFF" stop-opacity="0.1568628" /></linearGradient><linearGradient id="fs15" x1="0.499989330768585px" y1="-0.500007390975952px" x2="1.49998879432678px" y2="0.499990403652191px"><stop offset="0%" stop-color="#FFFFFF" stop-opacity="1" /><stop offset="100%" stop-color="#EBEBEB" stop-opacity="1" /></linearGradient><linearGradient id="fs16" x1="0.999995946884155px" y1="-1.11649678729009E-05px" x2="0.999994933605194px" y2="0.999988079071045px"><stop offset="0%" stop-color="#FFFFFF" stop-opacity="0.5490196" /><stop offset="100%" stop-color="#FFFFFF" stop-opacity="0.1568628" /></linearGradient><linearGradient id="fs17" x1="0.499994516372681px" y1="-0.500004351139069px" x2="1.49999451637268px" y2="0.499993652105331px"><stop offset="0%" stop-color="#FFFFFF" stop-opacity="1" /><stop offset="100%" stop-color="#EBEBEB" stop-opacity="1" /></linearGradient><linearGradient id="fs18" x1="0.999994516372681px" y1="-2.23795577767305E-05px" x2="0.999994516372681px" y2="0.999976933002472px"><stop offset="0%" stop-color="#FFFFFF" stop-opacity="0.5490196" /><stop offset="100%" stop-color="#FFFFFF" stop-opacity="0.1568628" /></linearGradient><linearGradient id="fs19" x1="0.499993890523911px" y1="-0.500006079673767px" x2="1.49999344348907px" y2="0.499992161989212px"><stop offset="0%" stop-color="#FFFFFF" stop-opacity="1" /><stop offset="100%" stop-color="#EBEBEB" stop-opacity="1" /></linearGradient><linearGradient id="fs20" x1="0.999997973442078px" y1="-3.87052205041982E-05px" x2="0.999996960163116px" y2="0.999961316585541px"><stop offset="0%" stop-color="#FFFFFF" stop-opacity="0.5490196" /><stop offset="100%" stop-color="#FFFFFF" stop-opacity="0.1568628" /></linearGradient><linearGradient id="fs21" x1="0.49998727440834px" y1="-0.500013947486877px" x2="1.4999862909317px" y2="0.499984294176102px"><stop offset="0%" stop-color="#FFFFFF" stop-opacity="1" /><stop offset="100%" stop-color="#EBEBEB" stop-opacity="1" /></linearGradient><linearGradient id="fs22" x1="0.999987781047821px" y1="-8.63424138515256E-05px" x2="0.999987781047821px" y2="0.99991363286972px"><stop offset="0%" stop-color="#FFFFFF" stop-opacity="0.5490196" /><stop offset="100%" stop-color="#FFFFFF" stop-opacity="0.1568628" /></linearGradient><linearGradient id="fs23" x1="0.499995917081833px" y1="-0.500011324882507px" x2="1.499995470047px" y2="0.499986916780472px"><stop offset="0%" stop-color="#FFFFFF" stop-opacity="1" /><stop offset="100%" stop-color="#EBEBEB" stop-opacity="1" /></linearGradient><linearGradient id="fs24" x1="0.999991834163666px" y1="-7.59217800805345E-05px" x2="0.999991834163666px" y2="0.999924063682556px"><stop offset="0%" stop-color="#FFFFFF" stop-opacity="0.5490196" /><stop offset="100%" stop-color="#FFFFFF" stop-opacity="0.1568628" /></linearGradient><linearGradient id="fs25" x1="0.499997705221176px" y1="-0.500001728534698px" x2="1.49999749660492px" y2="0.499996960163116px"><stop offset="0%" stop-color="#FFFFFF" stop-opacity="1" /><stop offset="100%" stop-color="#EBEBEB" stop-opacity="1" /></linearGradient><linearGradient id="fs26" x1="0.999997973442078px" y1="-7.44331191526726E-06px" x2="0.999997973442078px" y2="0.999991834163666px"><stop offset="0%" stop-color="#FFFFFF" stop-opacity="0.5490196" /><stop offset="100%" stop-color="#FFFFFF" stop-opacity="0.1568628" /></linearGradient><linearGradient id="fs27" x1="0.499997973442078px" y1="-0.500000894069672px" x2="1.49999749660492px" y2="0.499998897314072px"><stop offset="0%" stop-color="#FFFFFF" stop-opacity="1" /><stop offset="100%" stop-color="#EBEBEB" stop-opacity="1" /></linearGradient><linearGradient id="fs28" x1="0.99999874830246px" y1="-5.58248359538993E-07px" x2="0.999998450279236px" y2="0.999998867511749px"><stop offset="0%" stop-color="#FFFFFF" stop-opacity="0.5490196" /><stop offset="100%" stop-color="#FFFFFF" stop-opacity="0.1568628" /></linearGradient><linearGradient id="fs29" x1="0.499989330768585px" y1="-0.500003933906555px" x2="1.49998879432678px" y2="0.499995201826096px"><stop offset="0%" stop-color="#FFFFFF" stop-opacity="1" /><stop offset="100%" stop-color="#EBEBEB" stop-opacity="1" /></linearGradient><linearGradient id="fs30" x1="0.999995946884155px" y1="-3.3494902709208E-06px" x2="0.999994933605194px" y2="0.999996304512024px"><stop offset="0%" stop-color="#FFFFFF" stop-opacity="0.5490196" /><stop offset="100%" stop-color="#FFFFFF" stop-opacity="0.1568628" /></linearGradient><linearGradient id="fs31" x1="0.499997705221176px" y1="-0.500001728534698px" x2="1.49999749660492px" y2="0.49999737739563px"><stop offset="0%" stop-color="#FFFFFF" stop-opacity="1" /><stop offset="100%" stop-color="#EBEBEB" stop-opacity="1" /></linearGradient><linearGradient id="fs32" x1="0.999998986721039px" y1="-2.97732458420796E-06px" x2="0.999998450279236px" y2="0.999997019767761px"><stop offset="0%" stop-color="#FFFFFF" stop-opacity="0.5490196" /><stop offset="100%" stop-color="#FFFFFF" stop-opacity="0.1568628" /></linearGradient><linearGradient id="fs33" x1="0.499995917081833px" y1="-0.500006198883057px" x2="1.49999594688416px" y2="0.499991744756699px"><stop offset="0%" stop-color="#FFFFFF" stop-opacity="1" /><stop offset="100%" stop-color="#EBEBEB" stop-opacity="1" /></linearGradient><linearGradient id="fs34" x1="0.999994933605194px" y1="-1.41942227855907E-05px" x2="0.999994933605194px" y2="0.999985814094543px"><stop offset="0%" stop-color="#FFFFFF" stop-opacity="0.5490196" /><stop offset="100%" stop-color="#FFFFFF" stop-opacity="0.1568628" /></linearGradient><linearGradient id="fs35" x1="0.499998480081558px" y1="-0.500000894069672px" x2="1.49999845027924px" y2="0.499998241662979px"><stop offset="0%" stop-color="#FFFFFF" stop-opacity="1" /><stop offset="100%" stop-color="#EBEBEB" stop-opacity="1" /></linearGradient><linearGradient id="fs36" x1="0.999997973442078px" y1="-2.97732458420796E-06px" x2="0.999997973442078px" y2="0.999997019767761px"><stop offset="0%" stop-color="#FFFFFF" stop-opacity="0.5490196" /><stop offset="100%" stop-color="#FFFFFF" stop-opacity="0.1568628" /></linearGradient><linearGradient id="fs37" x1="0.499997466802597px" y1="-0.500000894069672px" x2="1.49999749660492px" y2="0.499996513128281px"><stop offset="0%" stop-color="#FFFFFF" stop-opacity="1" /><stop offset="100%" stop-color="#EBEBEB" stop-opacity="1" /></linearGradient><linearGradient id="fs38" x1="0.999997973442078px" y1="-1.04206364994752E-05px" x2="0.999997973442078px" y2="0.999989569187164px"><stop offset="0%" stop-color="#FFFFFF" stop-opacity="0.5490196" /><stop offset="100%" stop-color="#FFFFFF" stop-opacity="0.1568628" /></linearGradient><linearGradient id="fs39" x1="0.499990344047546px" y1="-0.50000786781311px" x2="1.49998986721039px" y2="0.499990403652191px"><stop offset="0%" stop-color="#FFFFFF" stop-opacity="1" /><stop offset="100%" stop-color="#EBEBEB" stop-opacity="1" /></linearGradient><linearGradient id="fs40" x1="0.999994933605194px" y1="-1.48866238305345E-05px" x2="0.999993920326233px" y2="0.999985098838806px"><stop offset="0%" stop-color="#FFFFFF" stop-opacity="0.5490196" /><stop offset="100%" stop-color="#FFFFFF" stop-opacity="0.1568628" /></linearGradient><clipPath id="cp1"><path d="M 296 116 L 416 116  416 186  296 186 z " /></clipPath><clipPath id="cp2" clip-rule="evenodd"><path d="M -30000 -30000 L 30000 -30000  30000 30000  -30000 30000 z M 296 116 L 416 116  416 186  296 186 z " /></clipPath><clipPath id="cp3"><path d="M 590 151 C 590 170.33  556.4213 186  515 186  473.5786 186  440 170.33  440 151  440 131.67  473.5786 116  515 116  556.4213 116  590 131.67  590 151 z " /></clipPath><clipPath id="cp4" clip-rule="evenodd"><path d="M -30000 -30000 L 30000 -30000  30000 30000  -30000 30000 z M 590 151 C 590 170.33  556.4213 186  515 186  473.5786 186  440 170.33  440 151  440 131.67  473.5786 116  515 116  556.4213 116  590 131.67  590 151 z " /></clipPath><clipPath id="cp5"><path d="M 589 150 C 589 169.33  555.4213 185  514 185  472.5786 185  439 169.33  439 150  439 130.67  472.5786 115  514 115  555.4213 115  589 130.67  589 150 z " /></clipPath><clipPath id="cp6"><path d="M 272 151 C 272 170.33  245.1371 186  212 186  178.8629 186  152 170.33  152 151  152 131.67  178.8629 116  212 116  245.1371 116  272 131.67  272 151 z " /></clipPath><clipPath id="cp7" clip-rule="evenodd"><path d="M -30000 -30000 L 30000 -30000  30000 30000  -30000 30000 z M 272 151 C 272 170.33  245.1371 186  212 186  178.8629 186  152 170.33  152 151  152 131.67  178.8629 116  212 116  245.1371 116  272 131.67  272 151 z " /></clipPath><clipPath id="cp8"><path d="M 271 150 C 271 169.33  244.1371 185  211 185  177.8629 185  151 169.33  151 150  151 130.67  177.8629 115  211 115  244.1371 115  271 130.67  271 150 z " /></clipPath><clipPath id="cp9"><path d="M 299 364 L 419 364  419 434  299 434 z " /></clipPath><clipPath id="cp10" clip-rule="evenodd"><path d="M -30000 -30000 L 30000 -30000  30000 30000  -30000 30000 z M 299 364 L 419 364  419 434  299 434 z " /></clipPath><clipPath id="cp11"><path d="M 575 399 C 575 418.33  548.137 434  515 434  481.8629 434  455 418.33  455 399  455 379.67  481.8629 364  515 364  548.137 364  575 379.67  575 399 z " /></clipPath><clipPath id="cp12" clip-rule="evenodd"><path d="M -30000 -30000 L 30000 -30000  30000 30000  -30000 30000 z M 575 399 C 575 418.33  548.137 434  515 434  481.8629 434  455 418.33  455 399  455 379.67  481.8629 364  515 364  548.137 364  575 379.67  575 399 z " /></clipPath><clipPath id="cp13"><path d="M 574 398 C 574 417.33  547.137 433  514 433  480.8629 433  454 417.33  454 398  454 378.67  480.8629 363  514 363  547.137 363  574 378.67  574 398 z " /></clipPath><clipPath id="cp14"><path d="M 356 245 L 416 280  356 315  296 280  356 245 z " /></clipPath><clipPath id="cp15" clip-rule="evenodd"><path d="M -30000 -30000 L 30000 -30000  30000 30000  -30000 30000 z M 356 245 L 416 280  356 315  296 280  356 245 z " /></clipPath><clipPath id="cp16"><path d="M 355 244 L 415 279  355 314  295 279  355 244 z " /></clipPath><clipPath id="cp17"><path d="M 299 591 L 419 591  419 661  299 661 z " /></clipPath><clipPath id="cp18" clip-rule="evenodd"><path d="M -30000 -30000 L 30000 -30000  30000 30000  -30000 30000 z M 299 591 L 419 591  419 661  299 661 z " /></clipPath><clipPath id="cp19"><path d="M 575 521.5 C 575 540.83  548.137 556.5  515 556.5  481.8629 556.5  455 540.83  455 521.5  455 502.17  481.8629 486.5  515 486.5  548.137 486.5  575 502.17  575 521.5 z " /></clipPath><clipPath id="cp20" clip-rule="evenodd"><path d="M -30000 -30000 L 30000 -30000  30000 30000  -30000 30000 z M 575 521.5 C 575 540.83  548.137 556.5  515 556.5  481.8629 556.5  455 540.83  455 521.5  455 502.17  481.8629 486.5  515 486.5  548.137 486.5  575 502.17  575 521.5 z " /></clipPath><clipPath id="cp21"><path d="M 574 521 C 574 540.33  547.137 556  514 556  480.8629 556  454 540.33  454 521  454 501.67  480.8629 486  514 486  547.137 486  574 501.67  574 521 z " /></clipPath><clipPath id="cp22"><path d="M 356 483 L 434 521.5  356 560  278 521.5  356 483 z " /></clipPath><clipPath id="cp23" clip-rule="evenodd"><path d="M -30000 -30000 L 30000 -30000  30000 30000  -30000 30000 z M 356 483 L 434 521.5  356 560  278 521.5  356 483 z " /></clipPath><clipPath id="cp24"><path d="M 355 482 L 433 520.5  355 559  277 520.5  355 482 z " /></clipPath><clipPath id="cp25"><path d="M 359 692 L 419 727  359 762  299 727  359 692 z " /></clipPath><clipPath id="cp26" clip-rule="evenodd"><path d="M -30000 -30000 L 30000 -30000  30000 30000  -30000 30000 z M 359 692 L 419 727  359 762  299 727  359 692 z " /></clipPath><clipPath id="cp27"><path d="M 358 691 L 418 726  358 761  298 726  358 691 z " /></clipPath><clipPath id="cp28"><path d="M 518 797 C 518 816.33  491.137 832  458 832  424.8629 832  398 816.33  398 797  398 777.67  424.8629 762  458 762  491.137 762  518 777.67  518 797 z " /></clipPath><clipPath id="cp29" clip-rule="evenodd"><path d="M -30000 -30000 L 30000 -30000  30000 30000  -30000 30000 z M 518 797 C 518 816.33  491.137 832  458 832  424.8629 832  398 816.33  398 797  398 777.67  424.8629 762  458 762  491.137 762  518 777.67  518 797 z " /></clipPath><clipPath id="cp30"><path d="M 517 796 C 517 815.33  490.1371 831  457 831  423.8629 831  397 815.33  397 796  397 776.67  423.8629 761  457 761  490.1371 761  517 776.67  517 796 z " /></clipPath><clipPath id="cp31"><path d="M 312 797 C 312 816.33  285.1371 832  252 832  218.8629 832  192 816.33  192 797  192 777.67  218.8629 762  252 762  285.1371 762  312 777.67  312 797 z " /></clipPath><clipPath id="cp32" clip-rule="evenodd"><path d="M -30000 -30000 L 30000 -30000  30000 30000  -30000 30000 z M 312 797 C 312 816.33  285.1371 832  252 832  218.8629 832  192 816.33  192 797  192 777.67  218.8629 762  252 762  285.1371 762  312 777.67  312 797 z " /></clipPath><clipPath id="cp33"><path d="M 311 796 C 311 815.33  284.1371 831  251 831  217.8629 831  191 815.33  191 796  191 776.67  217.8629 761  251 761  284.1371 761  311 776.67  311 796 z " /></clipPath><clipPath id="cp34"><path d="M 272 399 C 272 418.33  245.1371 434  212 434  178.8629 434  152 418.33  152 399  152 379.67  178.8629 364  212 364  245.1371 364  272 379.67  272 399 z " /></clipPath><clipPath id="cp35" clip-rule="evenodd"><path d="M -30000 -30000 L 30000 -30000  30000 30000  -30000 30000 z M 272 399 C 272 418.33  245.1371 434  212 434  178.8629 434  152 418.33  152 399  152 379.67  178.8629 364  212 364  245.1371 364  272 379.67  272 399 z " /></clipPath><clipPath id="cp36"><path d="M 271 398 C 271 417.33  244.1371 433  211 433  177.8629 433  151 417.33  151 398  151 378.67  177.8629 363  211 363  244.1371 363  271 378.67  271 398 z " /></clipPath><clipPath id="cp37"><path d="M 416 40 C 416 59.32996  389.137 75  356 75  322.8629 75  296 59.32996  296 40  296 20.67003  322.8629 5  356 5  389.137 5  416 20.67003  416 40 z " /></clipPath><clipPath id="cp38" clip-rule="evenodd"><path d="M -30000 -30000 L 30000 -30000  30000 30000  -30000 30000 z M 416 40 C 416 59.32996  389.137 75  356 75  322.8629 75  296 59.32996  296 40  296 20.67003  322.8629 5  356 5  389.137 5  416 20.67003  416 40 z " /></clipPath><clipPath id="cp39"><path d="M 415 39 C 415 58.32996  388.1371 74  355 74  321.8629 74  295 58.32996  295 39  295 19.67003  321.8629 4  355 4  388.1371 4  415 19.67003  415 39 z " /></clipPath><clipPath id="cp40"><path d="M 575 280 C 575 299.33  548.137 315  515 315  481.8629 315  455 299.33  455 280  455 260.67  481.8629 245  515 245  548.137 245  575 260.67  575 280 z " /></clipPath><clipPath id="cp41" clip-rule="evenodd"><path d="M -30000 -30000 L 30000 -30000  30000 30000  -30000 30000 z M 575 280 C 575 299.33  548.137 315  515 315  481.8629 315  455 299.33  455 280  455 260.67  481.8629 245  515 245  548.137 245  575 260.67  575 280 z " /></clipPath><clipPath id="cp42"><path d="M 574 279 C 574 298.33  547.137 314  514 314  480.8629 314  454 298.33  454 279  454 259.67  480.8629 244  514 244  547.137 244  574 259.67  574 279 z " /></clipPath><clipPath id="cp43"><path d="M 272 280 C 272 299.33  245.1371 315  212 315  178.8629 315  152 299.33  152 280  152 260.67  178.8629 245  212 245  245.1371 245  272 260.67  272 280 z " /></clipPath><clipPath id="cp44" clip-rule="evenodd"><path d="M -30000 -30000 L 30000 -30000  30000 30000  -30000 30000 z M 272 280 C 272 299.33  245.1371 315  212 315  178.8629 315  152 299.33  152 280  152 260.67  178.8629 245  212 245  245.1371 245  272 260.67  272 280 z " /></clipPath><clipPath id="cp45"><path d="M 271 279 C 271 298.33  244.1371 314  211 314  177.8629 314  151 298.33  151 279  151 259.67  177.8629 244  211 244  244.1371 244  271 259.67  271 279 z " /></clipPath><clipPath id="cp46"><path d="M 152 484.75 L 272 484.75  272 558.25  152 558.25 z " /></clipPath><clipPath id="cp47" clip-rule="evenodd"><path d="M -30000 -30000 L 30000 -30000  30000 30000  -30000 30000 z M 152 484.75 L 272 484.75  272 558.25  152 558.25 z " /></clipPath><clipPath id="cp48"><path d="M 125 399 C 125 418.33  98.13707 434  65 434  31.86292 434  5 418.33  5 399  5 379.67  31.86292 364  65 364  98.13707 364  125 379.67  125 399 z " /></clipPath><clipPath id="cp49" clip-rule="evenodd"><path d="M -30000 -30000 L 30000 -30000  30000 30000  -30000 30000 z M 125 399 C 125 418.33  98.13707 434  65 434  31.86292 434  5 418.33  5 399  5 379.67  31.86292 364  65 364  98.13707 364  125 379.67  125 399 z " /></clipPath><clipPath id="cp50"><path d="M 124 398 C 124 417.33  97.13708 433  64 433  30.86292 433  4 417.33  4 398  4 378.67  30.86292 363  64 363  97.13708 363  124 378.67  124 398 z " /></clipPath><clipPath id="cp51"><path d="M 131 521.5 C 131 540.83  104.1371 556.5  71 556.5  37.86292 556.5  11 540.83  11 521.5  11 502.17  37.86292 486.5  71 486.5  104.1371 486.5  131 502.17  131 521.5 z " /></clipPath><clipPath id="cp52" clip-rule="evenodd"><path d="M -30000 -30000 L 30000 -30000  30000 30000  -30000 30000 z M 131 521.5 C 131 540.83  104.1371 556.5  71 556.5  37.86292 556.5  11 540.83  11 521.5  11 502.17  37.86292 486.5  71 486.5  104.1371 486.5  131 502.17  131 521.5 z " /></clipPath><clipPath id="cp53"><path d="M 130 521 C 130 540.33  103.1371 556  70 556  36.86292 556  10 540.33  10 521  10 501.67  36.86292 486  70 486  103.1371 486  130 501.67  130 521 z " /></clipPath><clipPath id="cp54"><path d="M 575 626 C 575 645.33  548.137 661  515 661  481.8629 661  455 645.33  455 626  455 606.67  481.8629 591  515 591  548.137 591  575 606.67  575 626 z " /></clipPath><clipPath id="cp55" clip-rule="evenodd"><path d="M -30000 -30000 L 30000 -30000  30000 30000  -30000 30000 z M 575 626 C 575 645.33  548.137 661  515 661  481.8629 661  455 645.33  455 626  455 606.67  481.8629 591  515 591  548.137 591  575 606.67  575 626 z " /></clipPath><clipPath id="cp56"><path d="M 574 625 C 574 644.33  547.137 660  514 660  480.8629 660  454 644.33  454 625  454 605.67  480.8629 590  514 590  547.137 590  574 605.67  574 625 z " /></clipPath></defs><g clip-path="url(#)" transform="matrix(1 0 0 1 0 0)" /><g clip-path="url(#cp1)" transform="matrix(1 0 0 1 0 0)"><rect x="295px" y="115px" width="122px" height="72px" fill="rgba(0,0,0,0.196)" /></g><g clip-path="url(#)" transform="matrix(1 0 0 1 0 0)" /><g clip-path="url(#cp2)" transform="matrix(1 0 0 1 0 0)"><path fill="none" d="M 296 116 L 416 116  416 186  296 186 z " stroke="rgba(0,0,0,0.051)" stroke-width="8px" stroke-dashoffset="0" stroke-linejoin="round" stroke-miterlimit="10" /><path fill="none" d="M 296 116 L 416 116  416 186  296 186 z " stroke="rgba(0,0,0,0.051)" stroke-width="6px" stroke-dashoffset="0" stroke-linejoin="round" stroke-miterlimit="10" /><path fill="none" d="M 296 116 L 416 116  416 186  296 186 z " stroke="rgba(0,0,0,0.051)" stroke-width="4px" stroke-dashoffset="0" stroke-linejoin="round" stroke-miterlimit="10" /><path fill="none" d="M 296 116 L 416 116  416 186  296 186 z " stroke="rgba(0,0,0,0.051)" stroke-width="2px" stroke-dashoffset="0" stroke-linejoin="round" stroke-miterlimit="10" /></g><g clip-path="url(#)" transform="matrix(1 0 0 1 0 0)"><rect x="295px" y="115px" width="120px" height="70px" fill="url(#fs1)" /><path d="M 415 138.3333 C 355 138.3333  295 138.3333  295 155.8333 L 295 115  415 115  415 138.3333 z " fill="url(#fs2)" /><rect x="295px" y="115px" width="120px" height="70px" fill="none" stroke="#000000" stroke-width="1px" stroke-dashoffset="0" stroke-linejoin="round" stroke-miterlimit="10" /><text x="334px" y="157.556243896484px" font-family="Verdana" font-size="9.599999pt" font-weight="bold" fill="#000000">Value</text></g><g clip-path="url(#)" transform="matrix(1 0 0 1 0 0)" /><g clip-path="url(#)" transform="matrix(1 0 0 1 0 0)" /><g clip-path="url(#cp3)" transform="matrix(1 0 0 1 0 0)"><rect x="439px" y="115px" width="152px" height="72px" fill="rgba(0,0,0,0.196)" /></g><g clip-path="url(#)" transform="matrix(1 0 0 1 0 0)" /><g clip-path="url(#cp4)" transform="matrix(1 0 0 1 0 0)"><path fill="none" d="M 590 151 C 590 170.33  556.4213 186  515 186  473.5786 186  440 170.33  440 151  440 131.67  473.5786 116  515 116  556.4213 116  590 131.67  590 151 z " stroke="rgba(0,0,0,0.051)" stroke-width="8px" stroke-dashoffset="0" stroke-linejoin="round" stroke-miterlimit="10" /><path fill="none" d="M 590 151 C 590 170.33  556.4213 186  515 186  473.5786 186  440 170.33  440 151  440 131.67  473.5786 116  515 116  556.4213 116  590 131.67  590 151 z " stroke="rgba(0,0,0,0.051)" stroke-width="6px" stroke-dashoffset="0" stroke-linejoin="round" stroke-miterlimit="10" /><path fill="none" d="M 590 151 C 590 170.33  556.4213 186  515 186  473.5786 186  440 170.33  440 151  440 131.67  473.5786 116  515 116  556.4213 116  590 131.67  590 151 z " stroke="rgba(0,0,0,0.051)" stroke-width="4px" stroke-dashoffset="0" stroke-linejoin="round" stroke-miterlimit="10" /><path fill="none" d="M 590 151 C 590 170.33  556.4213 186  515 186  473.5786 186  440 170.33  440 151  440 131.67  473.5786 116  515 116  556.4213 116  590 131.67  590 151 z " stroke="rgba(0,0,0,0.051)" stroke-width="2px" stroke-dashoffset="0" stroke-linejoin="round" stroke-miterlimit="10" /></g><g clip-path="url(#)" transform="matrix(1 0 0 1 0 0)"><ellipse cx="514px" cy="150px" rx="75px" ry="35px" fill="url(#fs3)" /></g><g clip-path="url(#cp5)" transform="matrix(1 0 0 1 0 0)"><path d="M 589 138.3333 C 514 138.3333  439 138.3333  439 155.8333 L 439 115  589 115  589 138.3333 z " fill="url(#fs4)" /></g><g clip-path="url(#)" transform="matrix(1 0 0 1 0 0)"><ellipse cx="514px" cy="150px" rx="75px" ry="35px" fill="none" stroke="#000000" stroke-width="1px" stroke-dashoffset="0" stroke-linejoin="round" stroke-miterlimit="10" /><text x="447px" y="157.556243896484px" font-family="Verdana" font-size="9.599999pt" font-weight="bold" fill="#000000">Value_Description</text></g><g clip-path="url(#)" transform="matrix(1 0 0 1 0 0)" /><g clip-path="url(#)" transform="matrix(1 0 0 1 0 0)" /><g clip-path="url(#cp6)" transform="matrix(1 0 0 1 0 0)"><rect x="151px" y="115px" width="122px" height="72px" fill="rgba(0,0,0,0.196)" /></g><g clip-path="url(#)" transform="matrix(1 0 0 1 0 0)" /><g clip-path="url(#cp7)" transform="matrix(1 0 0 1 0 0)"><path fill="none" d="M 272 151 C 272 170.33  245.1371 186  212 186  178.8629 186  152 170.33  152 151  152 131.67  178.8629 116  212 116  245.1371 116  272 131.67  272 151 z " stroke="rgba(0,0,0,0.051)" stroke-width="8px" stroke-dashoffset="0" stroke-linejoin="round" stroke-miterlimit="10" /><path fill="none" d="M 272 151 C 272 170.33  245.1371 186  212 186  178.8629 186  152 170.33  152 151  152 131.67  178.8629 116  212 116  245.1371 116  272 131.67  272 151 z " stroke="rgba(0,0,0,0.051)" stroke-width="6px" stroke-dashoffset="0" stroke-linejoin="round" stroke-miterlimit="10" /><path fill="none" d="M 272 151 C 272 170.33  245.1371 186  212 186  178.8629 186  152 170.33  152 151  152 131.67  178.8629 116  212 116  245.1371 116  272 131.67  272 151 z " stroke="rgba(0,0,0,0.051)" stroke-width="4px" stroke-dashoffset="0" stroke-linejoin="round" stroke-miterlimit="10" /><path fill="none" d="M 272 151 C 272 170.33  245.1371 186  212 186  178.8629 186  152 170.33  152 151  152 131.67  178.8629 116  212 116  245.1371 116  272 131.67  272 151 z " stroke="rgba(0,0,0,0.051)" stroke-width="2px" stroke-dashoffset="0" stroke-linejoin="round" stroke-miterlimit="10" /></g><g clip-path="url(#)" transform="matrix(1 0 0 1 0 0)"><ellipse cx="211px" cy="150px" rx="60px" ry="35px" fill="url(#fs5)" /></g><g clip-path="url(#cp8)" transform="matrix(1 0 0 1 0 0)"><path d="M 271 138.3333 C 211 138.3333  151 138.3333  151 155.8333 L 151 115  271 115  271 138.3333 z " fill="url(#fs6)" /></g><g clip-path="url(#)" transform="matrix(1 0 0 1 0 0)"><ellipse cx="211px" cy="150px" rx="60px" ry="35px" fill="none" stroke="#000000" stroke-width="1px" stroke-dashoffset="0" stroke-linejoin="round" stroke-miterlimit="10" /><text x="182px" y="157.556243896484px" font-family="Verdana" font-size="9.599999pt" text-decoration="underline" fill="#000000">Value_ID</text></g><g clip-path="url(#)" transform="matrix(1 0 0 1 0 0)" /><g clip-path="url(#)" transform="matrix(1 0 0 1 0 0)" /><g clip-path="url(#cp9)" transform="matrix(1 0 0 1 0 0)"><rect x="298px" y="363px" width="122px" height="72px" fill="rgba(0,0,0,0.196)" /></g><g clip-path="url(#)" transform="matrix(1 0 0 1 0 0)" /><g clip-path="url(#cp10)" transform="matrix(1 0 0 1 0 0)"><path fill="none" d="M 299 364 L 419 364  419 434  299 434 z " stroke="rgba(0,0,0,0.051)" stroke-width="8px" stroke-dashoffset="0" stroke-linejoin="round" stroke-miterlimit="10" /><path fill="none" d="M 299 364 L 419 364  419 434  299 434 z " stroke="rgba(0,0,0,0.051)" stroke-width="6px" stroke-dashoffset="0" stroke-linejoin="round" stroke-miterlimit="10" /><path fill="none" d="M 299 364 L 419 364  419 434  299 434 z " stroke="rgba(0,0,0,0.051)" stroke-width="4px" stroke-dashoffset="0" stroke-linejoin="round" stroke-miterlimit="10" /><path fill="none" d="M 299 364 L 419 364  419 434  299 434 z " stroke="rgba(0,0,0,0.051)" stroke-width="2px" stroke-dashoffset="0" stroke-linejoin="round" stroke-miterlimit="10" /></g><g clip-path="url(#)" transform="matrix(1 0 0 1 0 0)"><rect x="298px" y="363px" width="120px" height="70px" fill="url(#fs7)" /><path d="M 418 386.3333 C 358 386.3333  298 386.3333  298 403.8333 L 298 363  418 363  418 386.3333 z " fill="url(#fs8)" /><rect x="298px" y="363px" width="120px" height="70px" fill="none" stroke="#000000" stroke-width="1px" stroke-dashoffset="0" stroke-linejoin="round" stroke-miterlimit="10" /><text x="334px" y="405.556243896484px" font-family="Verdana" font-size="9.599999pt" font-weight="bold" fill="#000000">Object</text></g><g clip-path="url(#)" transform="matrix(1 0 0 1 0 0)" /><g clip-path="url(#)" transform="matrix(1 0 0 1 0 0)" /><g clip-path="url(#cp11)" transform="matrix(1 0 0 1 0 0)"><rect x="454px" y="363px" width="122px" height="72px" fill="rgba(0,0,0,0.196)" /></g><g clip-path="url(#)" transform="matrix(1 0 0 1 0 0)" /><g clip-path="url(#cp12)" transform="matrix(1 0 0 1 0 0)"><path fill="none" d="M 575 399 C 575 418.33  548.137 434  515 434  481.8629 434  455 418.33  455 399  455 379.67  481.8629 364  515 364  548.137 364  575 379.67  575 399 z " stroke="rgba(0,0,0,0.051)" stroke-width="8px" stroke-dashoffset="0" stroke-linejoin="round" stroke-miterlimit="10" /><path fill="none" d="M 575 399 C 575 418.33  548.137 434  515 434  481.8629 434  455 418.33  455 399  455 379.67  481.8629 364  515 364  548.137 364  575 379.67  575 399 z " stroke="rgba(0,0,0,0.051)" stroke-width="6px" stroke-dashoffset="0" stroke-linejoin="round" stroke-miterlimit="10" /><path fill="none" d="M 575 399 C 575 418.33  548.137 434  515 434  481.8629 434  455 418.33  455 399  455 379.67  481.8629 364  515 364  548.137 364  575 379.67  575 399 z " stroke="rgba(0,0,0,0.051)" stroke-width="4px" stroke-dashoffset="0" stroke-linejoin="round" stroke-miterlimit="10" /><path fill="none" d="M 575 399 C 575 418.33  548.137 434  515 434  481.8629 434  455 418.33  455 399  455 379.67  481.8629 364  515 364  548.137 364  575 379.67  575 399 z " stroke="rgba(0,0,0,0.051)" stroke-width="2px" stroke-dashoffset="0" stroke-linejoin="round" stroke-miterlimit="10" /></g><g clip-path="url(#)" transform="matrix(1 0 0 1 0 0)"><ellipse cx="514px" cy="398px" rx="60px" ry="35px" fill="url(#fs9)" /></g><g clip-path="url(#cp13)" transform="matrix(1 0 0 1 0 0)"><path d="M 574 386.3333 C 514 386.3333  454 386.3333  454 403.8333 L 454 363  574 363  574 386.3333 z " fill="url(#fs10)" /></g><g clip-path="url(#)" transform="matrix(1 0 0 1 0 0)"><ellipse cx="514px" cy="398px" rx="60px" ry="35px" fill="none" stroke="#000000" stroke-width="1px" stroke-dashoffset="0" stroke-linejoin="round" stroke-miterlimit="10" /><text x="481px" y="405.556243896484px" font-family="Verdana" font-size="9.599999pt" text-decoration="underline" fill="#000000">Object_ID</text></g><g clip-path="url(#)" transform="matrix(1 0 0 1 0 0)" /><g clip-path="url(#)" transform="matrix(1 0 0 1 0 0)" /><g clip-path="url(#cp14)" transform="matrix(1 0 0 1 0 0)"><rect x="295px" y="244px" width="122px" height="72px" fill="rgba(0,0,0,0.196)" /></g><g clip-path="url(#)" transform="matrix(1 0 0 1 0 0)" /><g clip-path="url(#cp15)" transform="matrix(1 0 0 1 0 0)"><path fill="none" d="M 356 245 L 416 280  356 315  296 280  356 245 z " stroke="rgba(0,0,0,0.051)" stroke-width="8px" stroke-dashoffset="0" stroke-linejoin="round" stroke-miterlimit="10" /><path fill="none" d="M 356 245 L 416 280  356 315  296 280  356 245 z " stroke="rgba(0,0,0,0.051)" stroke-width="6px" stroke-dashoffset="0" stroke-linejoin="round" stroke-miterlimit="10" /><path fill="none" d="M 356 245 L 416 280  356 315  296 280  356 245 z " stroke="rgba(0,0,0,0.051)" stroke-width="4px" stroke-dashoffset="0" stroke-linejoin="round" stroke-miterlimit="10" /><path fill="none" d="M 356 245 L 416 280  356 315  296 280  356 245 z " stroke="rgba(0,0,0,0.051)" stroke-width="2px" stroke-dashoffset="0" stroke-linejoin="round" stroke-miterlimit="10" /></g><g clip-path="url(#)" transform="matrix(1 0 0 1 0 0)"><path d="M 355 244 L 415 279  355 314  295 279  355 244 z " fill="url(#fs11)" /></g><g clip-path="url(#cp16)" transform="matrix(1 0 0 1 0 0)"><path d="M 415 267.3333 C 355 267.3333  295 267.3333  295 284.8333 L 295 244  415 244  415 267.3333 z " fill="url(#fs12)" /></g><g clip-path="url(#)" transform="matrix(1 0 0 1 0 0)"><path fill="none" d="M 355 244 L 415 279  355 314  295 279  355 244 z " stroke="#000000" stroke-width="1px" stroke-dashoffset="0" stroke-linejoin="round" stroke-miterlimit="10" /><text x="302px" y="286.556243896484px" font-family="Verdana" font-size="9.599999pt" font-weight="bold" fill="#000000">Object_Values</text></g><g clip-path="url(#)" transform="matrix(1 0 0 1 0 0)" /><g clip-path="url(#)" transform="matrix(1 0 0 1 0 0)" /><g clip-path="url(#cp17)" transform="matrix(1 0 0 1 0 0)"><rect x="298px" y="590px" width="122px" height="72px" fill="rgba(0,0,0,0.196)" /></g><g clip-path="url(#)" transform="matrix(1 0 0 1 0 0)" /><g clip-path="url(#cp18)" transform="matrix(1 0 0 1 0 0)"><path fill="none" d="M 299 591 L 419 591  419 661  299 661 z " stroke="rgba(0,0,0,0.051)" stroke-width="8px" stroke-dashoffset="0" stroke-linejoin="round" stroke-miterlimit="10" /><path fill="none" d="M 299 591 L 419 591  419 661  299 661 z " stroke="rgba(0,0,0,0.051)" stroke-width="6px" stroke-dashoffset="0" stroke-linejoin="round" stroke-miterlimit="10" /><path fill="none" d="M 299 591 L 419 591  419 661  299 661 z " stroke="rgba(0,0,0,0.051)" stroke-width="4px" stroke-dashoffset="0" stroke-linejoin="round" stroke-miterlimit="10" /><path fill="none" d="M 299 591 L 419 591  419 661  299 661 z " stroke="rgba(0,0,0,0.051)" stroke-width="2px" stroke-dashoffset="0" stroke-linejoin="round" stroke-miterlimit="10" /></g><g clip-path="url(#)" transform="matrix(1 0 0 1 0 0)"><rect x="298px" y="590px" width="120px" height="70px" fill="url(#fs13)" /><path d="M 418 613.3333 C 358 613.3333  298 613.3333  298 630.8333 L 298 590  418 590  418 613.3333 z " fill="url(#fs14)" /><rect x="298px" y="590px" width="120px" height="70px" fill="none" stroke="#000000" stroke-width="1px" stroke-dashoffset="0" stroke-linejoin="round" stroke-miterlimit="10" /><text x="325px" y="632.556274414063px" font-family="Verdana" font-size="9.599999pt" font-weight="bold" fill="#000000">Situation</text></g><g clip-path="url(#)" transform="matrix(1 0 0 1 0 0)" /><g clip-path="url(#)" transform="matrix(1 0 0 1 0 0)" /><g clip-path="url(#cp19)" transform="matrix(1 0 0 1 0 0)"><rect x="454px" y="486px" width="122px" height="72px" fill="rgba(0,0,0,0.196)" /></g><g clip-path="url(#)" transform="matrix(1 0 0 1 0 0)" /><g clip-path="url(#cp20)" transform="matrix(1 0 0 1 0 0)"><path fill="none" d="M 575 521.5 C 575 540.83  548.137 556.5  515 556.5  481.8629 556.5  455 540.83  455 521.5  455 502.17  481.8629 486.5  515 486.5  548.137 486.5  575 502.17  575 521.5 z " stroke="rgba(0,0,0,0.051)" stroke-width="8px" stroke-dashoffset="0" stroke-linejoin="round" stroke-miterlimit="10" /><path fill="none" d="M 575 521.5 C 575 540.83  548.137 556.5  515 556.5  481.8629 556.5  455 540.83  455 521.5  455 502.17  481.8629 486.5  515 486.5  548.137 486.5  575 502.17  575 521.5 z " stroke="rgba(0,0,0,0.051)" stroke-width="6px" stroke-dashoffset="0" stroke-linejoin="round" stroke-miterlimit="10" /><path fill="none" d="M 575 521.5 C 575 540.83  548.137 556.5  515 556.5  481.8629 556.5  455 540.83  455 521.5  455 502.17  481.8629 486.5  515 486.5  548.137 486.5  575 502.17  575 521.5 z " stroke="rgba(0,0,0,0.051)" stroke-width="4px" stroke-dashoffset="0" stroke-linejoin="round" stroke-miterlimit="10" /><path fill="none" d="M 575 521.5 C 575 540.83  548.137 556.5  515 556.5  481.8629 556.5  455 540.83  455 521.5  455 502.17  481.8629 486.5  515 486.5  548.137 486.5  575 502.17  575 521.5 z " stroke="rgba(0,0,0,0.051)" stroke-width="2px" stroke-dashoffset="0" stroke-linejoin="round" stroke-miterlimit="10" /></g><g clip-path="url(#)" transform="matrix(1 0 0 1 0 0)"><ellipse cx="514px" cy="521px" rx="60px" ry="35px" fill="url(#fs15)" /></g><g clip-path="url(#cp21)" transform="matrix(1 0 0 1 0 0)"><path d="M 574 508.8333 C 514 508.8333  454 508.8333  454 526.3333 L 454 485.5  574 485.5  574 508.8333 z " fill="url(#fs16)" /></g><g clip-path="url(#)" transform="matrix(1 0 0 1 0 0)"><ellipse cx="514px" cy="521px" rx="60px" ry="35px" fill="none" stroke="#000000" stroke-width="1px" stroke-dashoffset="0" stroke-linejoin="round" stroke-miterlimit="10" /><text x="474px" y="528.556274414063px" font-family="Verdana" font-size="9.599999pt" text-decoration="underline" fill="#000000">Situation_ID</text></g><g clip-path="url(#)" transform="matrix(1 0 0 1 0 0)" /><g clip-path="url(#)" transform="matrix(1 0 0 1 0 0)" /><g clip-path="url(#cp22)" transform="matrix(1 0 0 1 0 0)"><rect x="277px" y="482px" width="158px" height="79px" fill="rgba(0,0,0,0.196)" /></g><g clip-path="url(#)" transform="matrix(1 0 0 1 0 0)" /><g clip-path="url(#cp23)" transform="matrix(1 0 0 1 0 0)"><path fill="none" d="M 356 483 L 434 521.5  356 560  278 521.5  356 483 z " stroke="rgba(0,0,0,0.051)" stroke-width="8px" stroke-dashoffset="0" stroke-linejoin="round" stroke-miterlimit="10" /><path fill="none" d="M 356 483 L 434 521.5  356 560  278 521.5  356 483 z " stroke="rgba(0,0,0,0.051)" stroke-width="6px" stroke-dashoffset="0" stroke-linejoin="round" stroke-miterlimit="10" /><path fill="none" d="M 356 483 L 434 521.5  356 560  278 521.5  356 483 z " stroke="rgba(0,0,0,0.051)" stroke-width="4px" stroke-dashoffset="0" stroke-linejoin="round" stroke-miterlimit="10" /><path fill="none" d="M 356 483 L 434 521.5  356 560  278 521.5  356 483 z " stroke="rgba(0,0,0,0.051)" stroke-width="2px" stroke-dashoffset="0" stroke-linejoin="round" stroke-miterlimit="10" /></g><g clip-path="url(#)" transform="matrix(1 0 0 1 0 0)"><path d="M 355 482 L 433 520.5  355 559  277 520.5  355 482 z " fill="url(#fs17)" /></g><g clip-path="url(#cp24)" transform="matrix(1 0 0 1 0 0)"><path d="M 433 507.6667 C 355 507.6667  277 507.6667  277 526.9167 L 277 482  433 482  433 507.6667 z " fill="url(#fs18)" /></g><g clip-path="url(#)" transform="matrix(1 0 0 1 0 0)"><path fill="none" d="M 355 482 L 433 520.5  355 559  277 520.5  355 482 z " stroke="#000000" stroke-width="1px" stroke-dashoffset="0" stroke-linejoin="round" stroke-miterlimit="10" /><text x="290px" y="528.556274414063px" font-family="Verdana" font-size="9.599999pt" font-weight="bold" fill="#000000">Situation_Objects</text></g><g clip-path="url(#)" transform="matrix(1 0 0 1 0 0)" /><g clip-path="url(#)" transform="matrix(1 0 0 1 0 0)" /><g clip-path="url(#cp25)" transform="matrix(1 0 0 1 0 0)"><rect x="298px" y="691px" width="122px" height="72px" fill="rgba(0,0,0,0.196)" /></g><g clip-path="url(#)" transform="matrix(1 0 0 1 0 0)" /><g clip-path="url(#cp26)" transform="matrix(1 0 0 1 0 0)"><path fill="none" d="M 359 692 L 419 727  359 762  299 727  359 692 z " stroke="rgba(0,0,0,0.051)" stroke-width="8px" stroke-dashoffset="0" stroke-linejoin="round" stroke-miterlimit="10" /><path fill="none" d="M 359 692 L 419 727  359 762  299 727  359 692 z " stroke="rgba(0,0,0,0.051)" stroke-width="6px" stroke-dashoffset="0" stroke-linejoin="round" stroke-miterlimit="10" /><path fill="none" d="M 359 692 L 419 727  359 762  299 727  359 692 z " stroke="rgba(0,0,0,0.051)" stroke-width="4px" stroke-dashoffset="0" stroke-linejoin="round" stroke-miterlimit="10" /><path fill="none" d="M 359 692 L 419 727  359 762  299 727  359 692 z " stroke="rgba(0,0,0,0.051)" stroke-width="2px" stroke-dashoffset="0" stroke-linejoin="round" stroke-miterlimit="10" /></g><g clip-path="url(#)" transform="matrix(1 0 0 1 0 0)"><path d="M 358 691 L 418 726  358 761  298 726  358 691 z " fill="url(#fs19)" /></g><g clip-path="url(#cp27)" transform="matrix(1 0 0 1 0 0)"><path d="M 418 714.3333 C 358 714.3333  298 714.3333  298 731.8333 L 298 691  418 691  418 714.3333 z " fill="url(#fs20)" /></g><g clip-path="url(#)" transform="matrix(1 0 0 1 0 0)"><path fill="none" d="M 358 691 L 418 726  358 761  298 726  358 691 z " stroke="#000000" stroke-width="1px" stroke-dashoffset="0" stroke-linejoin="round" stroke-miterlimit="10" /><text x="321px" y="733.556274414063px" font-family="Verdana" font-size="9.599999pt" font-weight="bold" fill="#000000">Transition</text></g><g clip-path="url(#)" transform="matrix(1 0 0 1 0 0)" /><g clip-path="url(#)" transform="matrix(1 0 0 1 0 0)" /><g clip-path="url(#cp28)" transform="matrix(1 0 0 1 0 0)"><rect x="397px" y="761px" width="122px" height="72px" fill="rgba(0,0,0,0.196)" /></g><g clip-path="url(#)" transform="matrix(1 0 0 1 0 0)" /><g clip-path="url(#cp29)" transform="matrix(1 0 0 1 0 0)"><path fill="none" d="M 518 797 C 518 816.33  491.137 832  458 832  424.8629 832  398 816.33  398 797  398 777.67  424.8629 762  458 762  491.137 762  518 777.67  518 797 z " stroke="rgba(0,0,0,0.051)" stroke-width="8px" stroke-dashoffset="0" stroke-linejoin="round" stroke-miterlimit="10" /><path fill="none" d="M 518 797 C 518 816.33  491.137 832  458 832  424.8629 832  398 816.33  398 797  398 777.67  424.8629 762  458 762  491.137 762  518 777.67  518 797 z " stroke="rgba(0,0,0,0.051)" stroke-width="6px" stroke-dashoffset="0" stroke-linejoin="round" stroke-miterlimit="10" /><path fill="none" d="M 518 797 C 518 816.33  491.137 832  458 832  424.8629 832  398 816.33  398 797  398 777.67  424.8629 762  458 762  491.137 762  518 777.67  518 797 z " stroke="rgba(0,0,0,0.051)" stroke-width="4px" stroke-dashoffset="0" stroke-linejoin="round" stroke-miterlimit="10" /><path fill="none" d="M 518 797 C 518 816.33  491.137 832  458 832  424.8629 832  398 816.33  398 797  398 777.67  424.8629 762  458 762  491.137 762  518 777.67  518 797 z " stroke="rgba(0,0,0,0.051)" stroke-width="2px" stroke-dashoffset="0" stroke-linejoin="round" stroke-miterlimit="10" /></g><g clip-path="url(#)" transform="matrix(1 0 0 1 0 0)"><ellipse cx="457px" cy="796px" rx="60px" ry="35px" fill="url(#fs21)" /></g><g clip-path="url(#cp30)" transform="matrix(1 0 0 1 0 0)"><path d="M 517 784.3333 C 457 784.3333  397 784.3333  397 801.8333 L 397 761  517 761  517 784.3333 z " fill="url(#fs22)" /></g><g clip-path="url(#)" transform="matrix(1 0 0 1 0 0)"><ellipse cx="457px" cy="796px" rx="60px" ry="35px" fill="none" stroke="#000000" stroke-width="1px" stroke-dashoffset="0" stroke-linejoin="round" stroke-miterlimit="10" /><text x="402px" y="795.556274414063px" font-family="Verdana" font-size="9.599999pt" font-weight="bold" fill="#000000">Transition_Cou</text><text x="449px" y="811.556274414063px" font-family="Verdana" font-size="9.599999pt" font-weight="bold" fill="#000000">nt</text></g><g clip-path="url(#)" transform="matrix(1 0 0 1 0 0)" /><g clip-path="url(#)" transform="matrix(1 0 0 1 0 0)" /><g clip-path="url(#cp31)" transform="matrix(1 0 0 1 0 0)"><rect x="191px" y="761px" width="122px" height="72px" fill="rgba(0,0,0,0.196)" /></g><g clip-path="url(#)" transform="matrix(1 0 0 1 0 0)" /><g clip-path="url(#cp32)" transform="matrix(1 0 0 1 0 0)"><path fill="none" d="M 312 797 C 312 816.33  285.1371 832  252 832  218.8629 832  192 816.33  192 797  192 777.67  218.8629 762  252 762  285.1371 762  312 777.67  312 797 z " stroke="rgba(0,0,0,0.051)" stroke-width="8px" stroke-dashoffset="0" stroke-linejoin="round" stroke-miterlimit="10" /><path fill="none" d="M 312 797 C 312 816.33  285.1371 832  252 832  218.8629 832  192 816.33  192 797  192 777.67  218.8629 762  252 762  285.1371 762  312 777.67  312 797 z " stroke="rgba(0,0,0,0.051)" stroke-width="6px" stroke-dashoffset="0" stroke-linejoin="round" stroke-miterlimit="10" /><path fill="none" d="M 312 797 C 312 816.33  285.1371 832  252 832  218.8629 832  192 816.33  192 797  192 777.67  218.8629 762  252 762  285.1371 762  312 777.67  312 797 z " stroke="rgba(0,0,0,0.051)" stroke-width="4px" stroke-dashoffset="0" stroke-linejoin="round" stroke-miterlimit="10" /><path fill="none" d="M 312 797 C 312 816.33  285.1371 832  252 832  218.8629 832  192 816.33  192 797  192 777.67  218.8629 762  252 762  285.1371 762  312 777.67  312 797 z " stroke="rgba(0,0,0,0.051)" stroke-width="2px" stroke-dashoffset="0" stroke-linejoin="round" stroke-miterlimit="10" /></g><g clip-path="url(#)" transform="matrix(1 0 0 1 0 0)"><ellipse cx="251px" cy="796px" rx="60px" ry="35px" fill="url(#fs23)" /></g><g clip-path="url(#cp33)" transform="matrix(1 0 0 1 0 0)"><path d="M 311 784.3333 C 251 784.3333  191 784.3333  191 801.8333 L 191 761  311 761  311 784.3333 z " fill="url(#fs24)" /></g><g clip-path="url(#)" transform="matrix(1 0 0 1 0 0)"><ellipse cx="251px" cy="796px" rx="60px" ry="35px" fill="none" stroke="#000000" stroke-width="1px" stroke-dashoffset="0" stroke-linejoin="round" stroke-miterlimit="10" /><text x="196px" y="795.556274414063px" font-family="Verdana" font-size="9.599999pt" font-weight="bold" fill="#000000">Transition_Pro</text><text x="224px" y="811.556274414063px" font-family="Verdana" font-size="9.599999pt" font-weight="bold" fill="#000000">bability</text></g><g clip-path="url(#)" transform="matrix(1 0 0 1 0 0)" /><g clip-path="url(#)" transform="matrix(1 0 0 1 0 0)" /><g clip-path="url(#cp34)" transform="matrix(1 0 0 1 0 0)"><rect x="151px" y="363px" width="122px" height="72px" fill="rgba(0,0,0,0.196)" /></g><g clip-path="url(#)" transform="matrix(1 0 0 1 0 0)" /><g clip-path="url(#cp35)" transform="matrix(1 0 0 1 0 0)"><path fill="none" d="M 272 399 C 272 418.33  245.1371 434  212 434  178.8629 434  152 418.33  152 399  152 379.67  178.8629 364  212 364  245.1371 364  272 379.67  272 399 z " stroke="rgba(0,0,0,0.051)" stroke-width="8px" stroke-dashoffset="0" stroke-linejoin="round" stroke-miterlimit="10" /><path fill="none" d="M 272 399 C 272 418.33  245.1371 434  212 434  178.8629 434  152 418.33  152 399  152 379.67  178.8629 364  212 364  245.1371 364  272 379.67  272 399 z " stroke="rgba(0,0,0,0.051)" stroke-width="6px" stroke-dashoffset="0" stroke-linejoin="round" stroke-miterlimit="10" /><path fill="none" d="M 272 399 C 272 418.33  245.1371 434  212 434  178.8629 434  152 418.33  152 399  152 379.67  178.8629 364  212 364  245.1371 364  272 379.67  272 399 z " stroke="rgba(0,0,0,0.051)" stroke-width="4px" stroke-dashoffset="0" stroke-linejoin="round" stroke-miterlimit="10" /><path fill="none" d="M 272 399 C 272 418.33  245.1371 434  212 434  178.8629 434  152 418.33  152 399  152 379.67  178.8629 364  212 364  245.1371 364  272 379.67  272 399 z " stroke="rgba(0,0,0,0.051)" stroke-width="2px" stroke-dashoffset="0" stroke-linejoin="round" stroke-miterlimit="10" /></g><g clip-path="url(#)" transform="matrix(1 0 0 1 0 0)"><ellipse cx="211px" cy="398px" rx="60px" ry="35px" fill="url(#fs25)" /></g><g clip-path="url(#cp36)" transform="matrix(1 0 0 1 0 0)"><path d="M 271 386.3333 C 211 386.3333  151 386.3333  151 403.8333 L 151 363  271 363  271 386.3333 z " fill="url(#fs26)" /></g><g clip-path="url(#)" transform="matrix(1 0 0 1 0 0)"><ellipse cx="211px" cy="398px" rx="60px" ry="35px" fill="none" stroke="#000000" stroke-width="1px" stroke-dashoffset="0" stroke-linejoin="round" stroke-miterlimit="10" /><text x="164px" y="405.556243896484px" font-family="Verdana" font-size="9.599999pt" font-weight="bold" fill="#000000">Object_Type</text></g><g clip-path="url(#)" transform="matrix(1 0 0 1 0 0)" /><g clip-path="url(#)" transform="matrix(1 0 0 1 0 0)" /><g clip-path="url(#cp37)" transform="matrix(1 0 0 1 0 0)"><rect x="295px" y="4px" width="122px" height="72px" fill="rgba(0,0,0,0.196)" /></g><g clip-path="url(#)" transform="matrix(1 0 0 1 0 0)" /><g clip-path="url(#cp38)" transform="matrix(1 0 0 1 0 0)"><path fill="none" d="M 416 40 C 416 59.32996  389.137 75  356 75  322.8629 75  296 59.32996  296 40  296 20.67003  322.8629 5  356 5  389.137 5  416 20.67003  416 40 z " stroke="rgba(0,0,0,0.051)" stroke-width="8px" stroke-dashoffset="0" stroke-linejoin="round" stroke-miterlimit="10" /><path fill="none" d="M 416 40 C 416 59.32996  389.137 75  356 75  322.8629 75  296 59.32996  296 40  296 20.67003  322.8629 5  356 5  389.137 5  416 20.67003  416 40 z " stroke="rgba(0,0,0,0.051)" stroke-width="6px" stroke-dashoffset="0" stroke-linejoin="round" stroke-miterlimit="10" /><path fill="none" d="M 416 40 C 416 59.32996  389.137 75  356 75  322.8629 75  296 59.32996  296 40  296 20.67003  322.8629 5  356 5  389.137 5  416 20.67003  416 40 z " stroke="rgba(0,0,0,0.051)" stroke-width="4px" stroke-dashoffset="0" stroke-linejoin="round" stroke-miterlimit="10" /><path fill="none" d="M 416 40 C 416 59.32996  389.137 75  356 75  322.8629 75  296 59.32996  296 40  296 20.67003  322.8629 5  356 5  389.137 5  416 20.67003  416 40 z " stroke="rgba(0,0,0,0.051)" stroke-width="2px" stroke-dashoffset="0" stroke-linejoin="round" stroke-miterlimit="10" /></g><g clip-path="url(#)" transform="matrix(1 0 0 1 0 0)"><ellipse cx="355px" cy="39px" rx="60px" ry="35px" fill="url(#fs27)" /></g><g clip-path="url(#cp39)" transform="matrix(1 0 0 1 0 0)"><path d="M 415 27.33334 C 355 27.33334  295 27.33334  295 44.83334 L 295 4  415 4  415 27.33334 z " fill="url(#fs28)" /></g><g clip-path="url(#)" transform="matrix(1 0 0 1 0 0)"><ellipse cx="355px" cy="39px" rx="60px" ry="35px" fill="none" stroke="#000000" stroke-width="1px" stroke-dashoffset="0" stroke-linejoin="round" stroke-miterlimit="10" /><text x="312px" y="46.5562477111816px" font-family="Verdana" font-size="9.599999pt" font-weight="bold" fill="#000000">Value_Type</text></g><g clip-path="url(#)" transform="matrix(1 0 0 1 0 0)" /><g clip-path="url(#)" transform="matrix(1 0 0 1 0 0)" /><g clip-path="url(#cp40)" transform="matrix(1 0 0 1 0 0)"><rect x="454px" y="244px" width="122px" height="72px" fill="rgba(0,0,0,0.196)" /></g><g clip-path="url(#)" transform="matrix(1 0 0 1 0 0)" /><g clip-path="url(#cp41)" transform="matrix(1 0 0 1 0 0)"><path fill="none" d="M 575 280 C 575 299.33  548.137 315  515 315  481.8629 315  455 299.33  455 280  455 260.67  481.8629 245  515 245  548.137 245  575 260.67  575 280 z " stroke="rgba(0,0,0,0.051)" stroke-width="8px" stroke-dashoffset="0" stroke-linejoin="round" stroke-miterlimit="10" /><path fill="none" d="M 575 280 C 575 299.33  548.137 315  515 315  481.8629 315  455 299.33  455 280  455 260.67  481.8629 245  515 245  548.137 245  575 260.67  575 280 z " stroke="rgba(0,0,0,0.051)" stroke-width="6px" stroke-dashoffset="0" stroke-linejoin="round" stroke-miterlimit="10" /><path fill="none" d="M 575 280 C 575 299.33  548.137 315  515 315  481.8629 315  455 299.33  455 280  455 260.67  481.8629 245  515 245  548.137 245  575 260.67  575 280 z " stroke="rgba(0,0,0,0.051)" stroke-width="4px" stroke-dashoffset="0" stroke-linejoin="round" stroke-miterlimit="10" /><path fill="none" d="M 575 280 C 575 299.33  548.137 315  515 315  481.8629 315  455 299.33  455 280  455 260.67  481.8629 245  515 245  548.137 245  575 260.67  575 280 z " stroke="rgba(0,0,0,0.051)" stroke-width="2px" stroke-dashoffset="0" stroke-linejoin="round" stroke-miterlimit="10" /></g><g clip-path="url(#)" transform="matrix(1 0 0 1 0 0)"><ellipse cx="514px" cy="279px" rx="60px" ry="35px" fill="url(#fs29)" /></g><g clip-path="url(#cp42)" transform="matrix(1 0 0 1 0 0)"><path d="M 574 267.3333 C 514 267.3333  454 267.3333  454 284.8333 L 454 244  574 244  574 267.3333 z " fill="url(#fs30)" /></g><g clip-path="url(#)" transform="matrix(1 0 0 1 0 0)"><ellipse cx="514px" cy="279px" rx="60px" ry="35px" fill="none" stroke="#000000" stroke-width="1px" stroke-dashoffset="0" stroke-linejoin="round" stroke-miterlimit="10" /><text x="471px" y="286.556243896484px" font-family="Verdana" font-size="9.599999pt" font-weight="bold" fill="#000000">Value_Type</text></g><g clip-path="url(#)" transform="matrix(1 0 0 1 0 0)" /><g clip-path="url(#)" transform="matrix(1 0 0 1 0 0)" /><g clip-path="url(#cp43)" transform="matrix(1 0 0 1 0 0)"><rect x="151px" y="244px" width="122px" height="72px" fill="rgba(0,0,0,0.196)" /></g><g clip-path="url(#)" transform="matrix(1 0 0 1 0 0)" /><g clip-path="url(#cp44)" transform="matrix(1 0 0 1 0 0)"><path fill="none" d="M 272 280 C 272 299.33  245.1371 315  212 315  178.8629 315  152 299.33  152 280  152 260.67  178.8629 245  212 245  245.1371 245  272 260.67  272 280 z " stroke="rgba(0,0,0,0.051)" stroke-width="8px" stroke-dashoffset="0" stroke-linejoin="round" stroke-miterlimit="10" /><path fill="none" d="M 272 280 C 272 299.33  245.1371 315  212 315  178.8629 315  152 299.33  152 280  152 260.67  178.8629 245  212 245  245.1371 245  272 260.67  272 280 z " stroke="rgba(0,0,0,0.051)" stroke-width="6px" stroke-dashoffset="0" stroke-linejoin="round" stroke-miterlimit="10" /><path fill="none" d="M 272 280 C 272 299.33  245.1371 315  212 315  178.8629 315  152 299.33  152 280  152 260.67  178.8629 245  212 245  245.1371 245  272 260.67  272 280 z " stroke="rgba(0,0,0,0.051)" stroke-width="4px" stroke-dashoffset="0" stroke-linejoin="round" stroke-miterlimit="10" /><path fill="none" d="M 272 280 C 272 299.33  245.1371 315  212 315  178.8629 315  152 299.33  152 280  152 260.67  178.8629 245  212 245  245.1371 245  272 260.67  272 280 z " stroke="rgba(0,0,0,0.051)" stroke-width="2px" stroke-dashoffset="0" stroke-linejoin="round" stroke-miterlimit="10" /></g><g clip-path="url(#)" transform="matrix(1 0 0 1 0 0)"><ellipse cx="211px" cy="279px" rx="60px" ry="35px" fill="url(#fs31)" /></g><g clip-path="url(#cp45)" transform="matrix(1 0 0 1 0 0)"><path d="M 271 267.3333 C 211 267.3333  151 267.3333  151 284.8333 L 151 244  271 244  271 267.3333 z " fill="url(#fs32)" /></g><g clip-path="url(#)" transform="matrix(1 0 0 1 0 0)"><ellipse cx="211px" cy="279px" rx="60px" ry="35px" fill="none" stroke="#000000" stroke-width="1px" stroke-dashoffset="0" stroke-linejoin="round" stroke-miterlimit="10" /><text x="176px" y="286.556243896484px" font-family="Verdana" font-size="9.599999pt" font-weight="bold" fill="#000000">Is_Stable</text></g><g clip-path="url(#)" transform="matrix(1 0 0 1 0 0)" /><g clip-path="url(#)" transform="matrix(1 0 0 1 0 0)" /><g clip-path="url(#cp46)" transform="matrix(1 0 0 1 0 0)"><rect x="151px" y="484px" width="122px" height="76px" fill="rgba(0,0,0,0.196)" /></g><g clip-path="url(#)" transform="matrix(1 0 0 1 0 0)" /><g clip-path="url(#cp47)" transform="matrix(1 0 0 1 0 0)"><path fill="none" d="M 152 484.75 L 272 484.75  272 558.25  152 558.25 z " stroke="rgba(0,0,0,0.051)" stroke-width="8px" stroke-dashoffset="0" stroke-linejoin="round" stroke-miterlimit="10" /><path fill="none" d="M 152 484.75 L 272 484.75  272 558.25  152 558.25 z " stroke="rgba(0,0,0,0.051)" stroke-width="6px" stroke-dashoffset="0" stroke-linejoin="round" stroke-miterlimit="10" /><path fill="none" d="M 152 484.75 L 272 484.75  272 558.25  152 558.25 z " stroke="rgba(0,0,0,0.051)" stroke-width="4px" stroke-dashoffset="0" stroke-linejoin="round" stroke-miterlimit="10" /><path fill="none" d="M 152 484.75 L 272 484.75  272 558.25  152 558.25 z " stroke="rgba(0,0,0,0.051)" stroke-width="2px" stroke-dashoffset="0" stroke-linejoin="round" stroke-miterlimit="10" /></g><g clip-path="url(#)" transform="matrix(1 0 0 1 0 0)"><rect x="151px" y="484px" width="120px" height="74px" fill="url(#fs33)" /><path d="M 271 508.25 C 211 508.25  151 508.25  151 526.625 L 151 483.75  271 483.75  271 508.25 z " fill="url(#fs34)" /><rect x="151px" y="484px" width="120px" height="74px" fill="none" stroke="#000000" stroke-width="1px" stroke-dashoffset="0" stroke-linejoin="round" stroke-miterlimit="10" /><text x="166px" y="528.556274414063px" font-family="Verdana" font-size="9.599999pt" font-weight="bold" fill="#000000">Object_Role</text></g><g clip-path="url(#)" transform="matrix(1 0 0 1 0 0)" /><g clip-path="url(#)" transform="matrix(1 0 0 1 0 0)" /><g clip-path="url(#cp48)" transform="matrix(1 0 0 1 0 0)"><rect x="4px" y="363px" width="122px" height="72px" fill="rgba(0,0,0,0.196)" /></g><g clip-path="url(#)" transform="matrix(1 0 0 1 0 0)" /><g clip-path="url(#cp49)" transform="matrix(1 0 0 1 0 0)"><path fill="none" d="M 125 399 C 125 418.33  98.13707 434  65 434  31.86292 434  5 418.33  5 399  5 379.67  31.86292 364  65 364  98.13707 364  125 379.67  125 399 z " stroke="rgba(0,0,0,0.051)" stroke-width="8px" stroke-dashoffset="0" stroke-linejoin="round" stroke-miterlimit="10" /><path fill="none" d="M 125 399 C 125 418.33  98.13707 434  65 434  31.86292 434  5 418.33  5 399  5 379.67  31.86292 364  65 364  98.13707 364  125 379.67  125 399 z " stroke="rgba(0,0,0,0.051)" stroke-width="6px" stroke-dashoffset="0" stroke-linejoin="round" stroke-miterlimit="10" /><path fill="none" d="M 125 399 C 125 418.33  98.13707 434  65 434  31.86292 434  5 418.33  5 399  5 379.67  31.86292 364  65 364  98.13707 364  125 379.67  125 399 z " stroke="rgba(0,0,0,0.051)" stroke-width="4px" stroke-dashoffset="0" stroke-linejoin="round" stroke-miterlimit="10" /><path fill="none" d="M 125 399 C 125 418.33  98.13707 434  65 434  31.86292 434  5 418.33  5 399  5 379.67  31.86292 364  65 364  98.13707 364  125 379.67  125 399 z " stroke="rgba(0,0,0,0.051)" stroke-width="2px" stroke-dashoffset="0" stroke-linejoin="round" stroke-miterlimit="10" /></g><g clip-path="url(#)" transform="matrix(1 0 0 1 0 0)"><ellipse cx="64px" cy="398px" rx="60px" ry="35px" fill="url(#fs35)" /></g><g clip-path="url(#cp50)" transform="matrix(1 0 0 1 0 0)"><path d="M 124 386.3333 C 64 386.3333  4 386.3333  4 403.8333 L 4 363  124 363  124 386.3333 z " fill="url(#fs36)" /></g><g clip-path="url(#)" transform="matrix(1 0 0 1 0 0)"><ellipse cx="64px" cy="398px" rx="60px" ry="35px" fill="none" stroke="#000000" stroke-width="1px" stroke-dashoffset="0" stroke-linejoin="round" stroke-miterlimit="10" /><text x="38px" y="405.556243896484px" font-family="Verdana" font-size="9.599999pt" text-decoration="underline" fill="#000000">Role_ID</text></g><g clip-path="url(#)" transform="matrix(1 0 0 1 0 0)" /><g clip-path="url(#)" transform="matrix(1 0 0 1 0 0)" /><g clip-path="url(#cp51)" transform="matrix(1 0 0 1 0 0)"><rect x="10px" y="486px" width="122px" height="72px" fill="rgba(0,0,0,0.196)" /></g><g clip-path="url(#)" transform="matrix(1 0 0 1 0 0)" /><g clip-path="url(#cp52)" transform="matrix(1 0 0 1 0 0)"><path fill="none" d="M 131 521.5 C 131 540.83  104.1371 556.5  71 556.5  37.86292 556.5  11 540.83  11 521.5  11 502.17  37.86292 486.5  71 486.5  104.1371 486.5  131 502.17  131 521.5 z " stroke="rgba(0,0,0,0.051)" stroke-width="8px" stroke-dashoffset="0" stroke-linejoin="round" stroke-miterlimit="10" /><path fill="none" d="M 131 521.5 C 131 540.83  104.1371 556.5  71 556.5  37.86292 556.5  11 540.83  11 521.5  11 502.17  37.86292 486.5  71 486.5  104.1371 486.5  131 502.17  131 521.5 z " stroke="rgba(0,0,0,0.051)" stroke-width="6px" stroke-dashoffset="0" stroke-linejoin="round" stroke-miterlimit="10" /><path fill="none" d="M 131 521.5 C 131 540.83  104.1371 556.5  71 556.5  37.86292 556.5  11 540.83  11 521.5  11 502.17  37.86292 486.5  71 486.5  104.1371 486.5  131 502.17  131 521.5 z " stroke="rgba(0,0,0,0.051)" stroke-width="4px" stroke-dashoffset="0" stroke-linejoin="round" stroke-miterlimit="10" /><path fill="none" d="M 131 521.5 C 131 540.83  104.1371 556.5  71 556.5  37.86292 556.5  11 540.83  11 521.5  11 502.17  37.86292 486.5  71 486.5  104.1371 486.5  131 502.17  131 521.5 z " stroke="rgba(0,0,0,0.051)" stroke-width="2px" stroke-dashoffset="0" stroke-linejoin="round" stroke-miterlimit="10" /></g><g clip-path="url(#)" transform="matrix(1 0 0 1 0 0)"><ellipse cx="70px" cy="521px" rx="60px" ry="35px" fill="url(#fs37)" /></g><g clip-path="url(#cp53)" transform="matrix(1 0 0 1 0 0)"><path d="M 130 508.8333 C 70 508.8333  10 508.8333  10 526.3333 L 10 485.5  130 485.5  130 508.8333 z " fill="url(#fs38)" /></g><g clip-path="url(#)" transform="matrix(1 0 0 1 0 0)"><ellipse cx="70px" cy="521px" rx="60px" ry="35px" fill="none" stroke="#000000" stroke-width="1px" stroke-dashoffset="0" stroke-linejoin="round" stroke-miterlimit="10" /><text x="16px" y="519.556274414063px" font-family="Verdana" font-size="9.599999pt" font-weight="bold" fill="#000000">Role_Descripti</text><text x="61px" y="535.556274414063px" font-family="Verdana" font-size="9.599999pt" font-weight="bold" fill="#000000">on</text></g><g clip-path="url(#)" transform="matrix(1 0 0 1 0 0)" /><g clip-path="url(#)" transform="matrix(1 0 0 1 0 0)" /><g clip-path="url(#cp54)" transform="matrix(1 0 0 1 0 0)"><rect x="454px" y="590px" width="122px" height="72px" fill="rgba(0,0,0,0.196)" /></g><g clip-path="url(#)" transform="matrix(1 0 0 1 0 0)" /><g clip-path="url(#cp55)" transform="matrix(1 0 0 1 0 0)"><path fill="none" d="M 575 626 C 575 645.33  548.137 661  515 661  481.8629 661  455 645.33  455 626  455 606.67  481.8629 591  515 591  548.137 591  575 606.67  575 626 z " stroke="rgba(0,0,0,0.051)" stroke-width="8px" stroke-dashoffset="0" stroke-linejoin="round" stroke-miterlimit="10" /><path fill="none" d="M 575 626 C 575 645.33  548.137 661  515 661  481.8629 661  455 645.33  455 626  455 606.67  481.8629 591  515 591  548.137 591  575 606.67  575 626 z " stroke="rgba(0,0,0,0.051)" stroke-width="6px" stroke-dashoffset="0" stroke-linejoin="round" stroke-miterlimit="10" /><path fill="none" d="M 575 626 C 575 645.33  548.137 661  515 661  481.8629 661  455 645.33  455 626  455 606.67  481.8629 591  515 591  548.137 591  575 606.67  575 626 z " stroke="rgba(0,0,0,0.051)" stroke-width="4px" stroke-dashoffset="0" stroke-linejoin="round" stroke-miterlimit="10" /><path fill="none" d="M 575 626 C 575 645.33  548.137 661  515 661  481.8629 661  455 645.33  455 626  455 606.67  481.8629 591  515 591  548.137 591  575 606.67  575 626 z " stroke="rgba(0,0,0,0.051)" stroke-width="2px" stroke-dashoffset="0" stroke-linejoin="round" stroke-miterlimit="10" /></g><g clip-path="url(#)" transform="matrix(1 0 0 1 0 0)"><ellipse cx="514px" cy="625px" rx="60px" ry="35px" fill="url(#fs39)" /></g><g clip-path="url(#cp56)" transform="matrix(1 0 0 1 0 0)"><path d="M 574 613.3333 C 514 613.3333  454 613.3333  454 630.8333 L 454 590  574 590  574 613.3333 z " fill="url(#fs40)" /></g><g clip-path="url(#)" transform="matrix(1 0 0 1 0 0)"><ellipse cx="514px" cy="625px" rx="60px" ry="35px" fill="none" stroke="#000000" stroke-width="1px" stroke-dashoffset="0" stroke-linejoin="round" stroke-miterlimit="10" /><text x="480px" y="632.556274414063px" font-family="Verdana" font-size="9.599999pt" font-weight="bold" fill="#000000">Is_Initial</text></g><g clip-path="url(#)" transform="matrix(1 0 0 1 0 0)" /><g clip-path="url(#)" transform="matrix(1 0 0 1 0 0)"><polyline points="295,150 271,150 " fill="none" stroke="#000000" stroke-width="1px" stroke-dashoffset="0" stroke-linejoin="round" stroke-miterlimit="10" /></g><g clip-path="url(#)" transform="matrix(1 0 0 1 0 0)" /><g clip-path="url(#)" transform="matrix(1 0 0 1 0 0)"><polyline points="415,150 439,150 " fill="none" stroke="#000000" stroke-width="1px" stroke-dashoffset="0" stroke-linejoin="round" stroke-miterlimit="10" /></g><g clip-path="url(#)" transform="matrix(1 0 0 1 0 0)" /><g clip-path="url(#)" transform="matrix(1 0 0 1 0 0)"><polyline points="454,398 418,398 " fill="none" stroke="#000000" stroke-width="1px" stroke-dashoffset="0" stroke-linejoin="round" stroke-miterlimit="10" /></g><g clip-path="url(#)" transform="matrix(1 0 0 1 0 0)" /><g clip-path="url(#)" transform="matrix(1 0 0 1 0 0)"><polyline points="355,185 355,244 " fill="none" stroke="#000000" stroke-width="1px" stroke-dashoffset="0" stroke-linejoin="round" stroke-miterlimit="10" /><text x="340px" y="208.000625610352px" font-family="Verdana" font-size="8.639999pt" fill="#000000">M</text></g><g clip-path="url(#)" transform="matrix(1 0 0 1 0 0)" /><g clip-path="url(#)" transform="matrix(1 0 0 1 0 0)"><polyline points="357,363 356,313 " fill="none" stroke="#000000" stroke-width="1px" stroke-dashoffset="0" stroke-linejoin="round" stroke-miterlimit="10" /><text x="342px" y="332.000610351563px" font-family="Verdana" font-size="8.639999pt" fill="#000000">N</text></g><g clip-path="url(#)" transform="matrix(1 0 0 1 0 0)" /><g clip-path="url(#)" transform="matrix(1 0 0 1 0 0)"><polyline points="462,537 410,590 " fill="none" stroke="#000000" stroke-width="1px" stroke-dashoffset="0" stroke-linejoin="round" stroke-miterlimit="10" /></g><g clip-path="url(#)" transform="matrix(1 0 0 1 0 0)" /><g clip-path="url(#)" transform="matrix(1 0 0 1 0 0)"><polyline points="357,590 356,558 " fill="none" stroke="#000000" stroke-width="1px" stroke-dashoffset="0" stroke-linejoin="round" stroke-miterlimit="10" /><text x="349px" y="577.000610351563px" font-family="Verdana" font-size="8.639999pt" fill="#000000">N</text></g><g clip-path="url(#)" transform="matrix(1 0 0 1 0 0)" /><g clip-path="url(#)" transform="matrix(1 0 0 1 0 0)"><polyline points="356,482 357,433 " fill="none" stroke="#000000" stroke-width="1px" stroke-dashoffset="0" stroke-linejoin="round" stroke-miterlimit="10" /><text x="347px" y="456.000610351563px" font-family="Verdana" font-size="8.639999pt" fill="#000000">M</text></g><g clip-path="url(#)" transform="matrix(1 0 0 1 0 0)" /><g clip-path="url(#)" transform="matrix(1 0 0 1 0 0)"><polyline points="298,726 277,726 277,678 277,625 298,625 " fill="none" stroke="#000000" stroke-width="1px" stroke-dashoffset="0" stroke-linejoin="round" stroke-miterlimit="10" /><text x="266px" y="678.000610351563px" font-family="Verdana" font-size="8.639999pt" fill="#000000">1</text></g><g clip-path="url(#)" transform="matrix(1 0 0 1 0 0)" /><g clip-path="url(#)" transform="matrix(1 0 0 1 0 0)"><polyline points="318,738 291,769 " fill="none" stroke="#000000" stroke-width="1px" stroke-dashoffset="0" stroke-linejoin="round" stroke-miterlimit="10" /></g><g clip-path="url(#)" transform="matrix(1 0 0 1 0 0)" /><g clip-path="url(#)" transform="matrix(1 0 0 1 0 0)"><polyline points="408,775 385,745 " fill="none" stroke="#000000" stroke-width="1px" stroke-dashoffset="0" stroke-linejoin="round" stroke-miterlimit="10" /></g><g clip-path="url(#)" transform="matrix(1 0 0 1 0 0)" /><g clip-path="url(#)" transform="matrix(1 0 0 1 0 0)"><polyline points="271,398 298,398 " fill="none" stroke="#000000" stroke-width="1px" stroke-dashoffset="0" stroke-linejoin="round" stroke-miterlimit="10" /></g><g clip-path="url(#)" transform="matrix(1 0 0 1 0 0)" /><g clip-path="url(#)" transform="matrix(1 0 0 1 0 0)"><polyline points="418,726 440,726 440,674 440,625 418,625 " fill="none" stroke="#000000" stroke-width="1px" stroke-dashoffset="0" stroke-linejoin="round" stroke-miterlimit="10" /><text x="425px" y="670.000610351563px" font-family="Verdana" font-size="8.639999pt" fill="#000000">1</text></g><g clip-path="url(#)" transform="matrix(1 0 0 1 0 0)" /><g clip-path="url(#)" transform="matrix(1 0 0 1 0 0)"><polyline points="271,519 280,519 " fill="none" stroke="#000000" stroke-width="1px" stroke-dashoffset="0" stroke-linejoin="round" stroke-miterlimit="10" /></g><g clip-path="url(#)" transform="matrix(1 0 0 1 0 0)" /><g clip-path="url(#)" transform="matrix(1 0 0 1 0 0)"><polyline points="355,74 355,115 " fill="none" stroke="#000000" stroke-width="1px" stroke-dashoffset="0" stroke-linejoin="round" stroke-miterlimit="10" /></g><g clip-path="url(#)" transform="matrix(1 0 0 1 0 0)" /><g clip-path="url(#)" transform="matrix(1 0 0 1 0 0)"><polyline points="454,279 415,279 " fill="none" stroke="#000000" stroke-width="1px" stroke-dashoffset="0" stroke-linejoin="round" stroke-miterlimit="10" /></g><g clip-path="url(#)" transform="matrix(1 0 0 1 0 0)" /><g clip-path="url(#)" transform="matrix(1 0 0 1 0 0)"><polyline points="254,303 315,363 " fill="none" stroke="#000000" stroke-width="1px" stroke-dashoffset="0" stroke-linejoin="round" stroke-miterlimit="10" /></g><g clip-path="url(#)" transform="matrix(1 0 0 1 0 0)" /><g clip-path="url(#)" transform="matrix(1 0 0 1 0 0)"><polyline points="106,422 168,484 " fill="none" stroke="#000000" stroke-width="1px" stroke-dashoffset="0" stroke-linejoin="round" stroke-miterlimit="10" /></g><g clip-path="url(#)" transform="matrix(1 0 0 1 0 0)" /><g clip-path="url(#)" transform="matrix(1 0 0 1 0 0)"><polyline points="129,520 151,520 " fill="none" stroke="#000000" stroke-width="1px" stroke-dashoffset="0" stroke-linejoin="round" stroke-miterlimit="10" /></g><g clip-path="url(#)" transform="matrix(1 0 0 1 0 0)" /><g clip-path="url(#)" transform="matrix(1 0 0 1 0 0)"><polyline points="418,625 454,625 " fill="none" stroke="#000000" stroke-width="1px" stroke-dashoffset="0" stroke-linejoin="round" stroke-miterlimit="10" /></g></svg>