<?xml version="1.0" encoding="utf-8" standalone="no"?><!DOCTYPE svg PUBLIC "-//W3C//DTD SVG 1.1//EN" "http://www.w3.org/Graphics/SVG/1.1/DTD/svg11.dtd"><svg width="848px" height="368px" version="1.1" xmlns="http://www.w3.org/2000/svg" xmlns:xlink="http://www.w3.org/1999/xlink"><desc /><defs><linearGradient id="fs1" x1="0.499991863965988px" y1="-0.500004351139069px" x2="1.49999129772186px" y2="0.49999475479126px"><stop offset="0%" stop-color="#FFFFFF" stop-opacity="1" /><stop offset="100%" stop-color="#EBEBEB" stop-opacity="1" /></linearGradient><linearGradient id="fs2" x1="0.999993920326233px" y1="-6.69898054184159E-06px" x2="0.99999338388443px" y2="0.999993324279785px"><stop offset="0%" stop-color="#FFFFFF" stop-opacity="0.5490196" /><stop offset="100%" stop-color="#FFFFFF" stop-opacity="0.1568628" /></linearGradient><linearGradient id="fs3" x1="0.499997466802597px" y1="-0.500000834465027px" x2="1.49999725818634px" y2="0.499998807907104px"><stop offset="0%" stop-color="#FFFFFF" stop-opacity="1" /><stop offset="100%" stop-color="#EBEBEB" stop-opacity="1" /></linearGradient><linearGradient id="fs4" x1="0.999998450279236px" y1="-1.1737530485334E-06px" x2="0.999998211860657px" y2="0.999998807907104px"><stop offset="0%" stop-color="#FFFFFF" stop-opacity="0.5490196" /><stop offset="100%" stop-color="#FFFFFF" stop-opacity="0.1568628" /></linearGradient><linearGradient id="fs5" x1="0.49999338388443px" y1="-0.50000137090683px" x2="1.49999237060547px" y2="0.499998301267624px"><stop offset="0%" stop-color="#FFFFFF" stop-opacity="1" /><stop offset="100%" stop-color="#EBEBEB" stop-opacity="1" /></linearGradient><linearGradient id="fs6" x1="0.999997437000275px" y1="-1.1737530485334E-06px" x2="0.999996960163116px" y2="0.999998211860657px"><stop offset="0%" stop-color="#FFFFFF" stop-opacity="0.5490196" /><stop offset="100%" stop-color="#FFFFFF" stop-opacity="0.1568628" /></linearGradient><linearGradient id="fs7" x1="0.499997973442078px" y1="-0.500000596046448px" x2="1.4999977350235px" y2="0.499998927116394px"><stop offset="0%" stop-color="#FFFFFF" stop-opacity="1" /><stop offset="100%" stop-color="#EBEBEB" stop-opacity="1" /></linearGradient><linearGradient id="fs8" x1="0.999998986721039px" y1="-2.63082569063045E-07px" x2="0.99999874830246px" y2="0.999999582767487px"><stop offset="0%" stop-color="#FFFFFF" stop-opacity="0.5490196" /><stop offset="100%" stop-color="#FFFFFF" stop-opacity="0.1568628" /></linearGradient><linearGradient id="fs9" x1="0.499996960163116px" y1="-0.500001192092896px" x2="1.49999594688416px" y2="0.499998778104782px"><stop offset="0%" stop-color="#FFFFFF" stop-opacity="1" /><stop offset="100%" stop-color="#EBEBEB" stop-opacity="1" /></linearGradient><linearGradient id="fs10" x1="0.999998450279236px" y1="-5.26165138126089E-07px" x2="0.999997973442078px" y2="0.999998927116394px"><stop offset="0%" stop-color="#FFFFFF" stop-opacity="0.5490196" /><stop offset="100%" stop-color="#FFFFFF" stop-opacity="0.1568628" /></linearGradient><linearGradient id="fs11" x1="0.49999338388443px" y1="-0.500004291534424px" x2="1.49999284744263px" y2="0.499995112419128px"><stop offset="0%" stop-color="#FFFFFF" stop-opacity="1" /><stop offset="100%" stop-color="#EBEBEB" stop-opacity="1" /></linearGradient><linearGradient id="fs12" x1="0.999994933605194px" y1="-3.15699094244337E-06px" x2="0.999994933605194px" y2="0.999996840953827px"><stop offset="0%" stop-color="#FFFFFF" stop-opacity="0.5490196" /><stop offset="100%" stop-color="#FFFFFF" stop-opacity="0.1568628" /></linearGradient><linearGradient id="fs13" x1="0.499999225139618px" y1="-0.500000298023224px" x2="1.49999892711639px" y2="0.499999135732651px"><stop offset="0%" stop-color="#FFFFFF" stop-opacity="1" /><stop offset="100%" stop-color="#EBEBEB" stop-opacity="1" /></linearGradient><linearGradient id="fs14" x1="0.999999225139618px" y1="-3.72165573025995E-07px" x2="0.999999225139618px" y2="0.999999284744263px"><stop offset="0%" stop-color="#FFFFFF" stop-opacity="0.5490196" /><stop offset="100%" stop-color="#FFFFFF" stop-opacity="0.1568628" /></linearGradient><clipPath id="cp1"><path d="M 714 284 L 834 284  834 354  714 354 z " /></clipPath><clipPath id="cp2" clip-rule="evenodd"><path d="M -30000 -30000 L 30000 -30000  30000 30000  -30000 30000 z M 714 284 L 834 284  834 354  714 354 z " /></clipPath><clipPath id="cp3"><path d="M 363 181 C 363 205.8528  336.1371 226  303 226  269.8629 226  243 205.8528  243 181  243 156.1472  269.8629 136  303 136  336.1371 136  363 156.1472  363 181 z " /></clipPath><clipPath id="cp4" clip-rule="evenodd"><path d="M -30000 -30000 L 30000 -30000  30000 30000  -30000 30000 z M 363 181 C 363 205.8528  336.1371 226  303 226  269.8629 226  243 205.8528  243 181  243 156.1472  269.8629 136  303 136  336.1371 136  363 156.1472  363 181 z " /></clipPath><clipPath id="cp5"><path d="M 362 180 C 362 204.8528  335.1371 225  302 225  268.8629 225  242 204.8528  242 180  242 155.1472  268.8629 135  302 135  335.1371 135  362 155.1472  362 180 z " /></clipPath><clipPath id="cp6"><path d="M 601 181 C 601 205.8528  574.137 226  541 226  507.8629 226  481 205.8528  481 181  481 156.1472  507.8629 136  541 136  574.137 136  601 156.1472  601 181 z " /></clipPath><clipPath id="cp7" clip-rule="evenodd"><path d="M -30000 -30000 L 30000 -30000  30000 30000  -30000 30000 z M 601 181 C 601 205.8528  574.137 226  541 226  507.8629 226  481 205.8528  481 181  481 156.1472  507.8629 136  541 136  574.137 136  601 156.1472  601 181 z " /></clipPath><clipPath id="cp8"><path d="M 600 180 C 600 204.8528  573.137 225  540 225  506.8629 225  480 204.8528  480 180  480 155.1472  506.8629 135  540 135  573.137 135  600 155.1472  600 180 z " /></clipPath><clipPath id="cp9"><path d="M 243 5 L 363 5  363 55  243 55 z " /></clipPath><clipPath id="cp10" clip-rule="evenodd"><path d="M -30000 -30000 L 30000 -30000  30000 30000  -30000 30000 z M 243 5 L 363 5  363 55  243 55 z " /></clipPath><clipPath id="cp11"><path d="M 481 5 L 601 5  601 55  481 55 z " /></clipPath><clipPath id="cp12" clip-rule="evenodd"><path d="M -30000 -30000 L 30000 -30000  30000 30000  -30000 30000 z M 481 5 L 601 5  601 55  481 55 z " /></clipPath><clipPath id="cp13"><path d="M 481 294 L 601 294  601 344  481 344 z " /></clipPath><clipPath id="cp14" clip-rule="evenodd"><path d="M -30000 -30000 L 30000 -30000  30000 30000  -30000 30000 z M 481 294 L 601 294  601 344  481 344 z " /></clipPath><clipPath id="cp15"><path d="M 5 146 L 125 146  125 216  5 216 z " /></clipPath><clipPath id="cp16" clip-rule="evenodd"><path d="M -30000 -30000 L 30000 -30000  30000 30000  -30000 30000 z M 5 146 L 125 146  125 216  5 216 z " /></clipPath></defs><g clip-path="url(#)" transform="matrix(1 0 0 1 0 0)" /><g clip-path="url(#cp1)" transform="matrix(1 0 0 1 0 0)"><rect x="713px" y="283px" width="122px" height="72px" fill="rgba(0,0,0,0.196)" /></g><g clip-path="url(#)" transform="matrix(1 0 0 1 0 0)" /><g clip-path="url(#cp2)" transform="matrix(1 0 0 1 0 0)"><path fill="none" d="M 714 284 L 834 284  834 354  714 354 z " stroke="rgba(0,0,0,0.051)" stroke-width="8px" stroke-dashoffset="0" stroke-linejoin="round" stroke-miterlimit="10" /><path fill="none" d="M 714 284 L 834 284  834 354  714 354 z " stroke="rgba(0,0,0,0.051)" stroke-width="6px" stroke-dashoffset="0" stroke-linejoin="round" stroke-miterlimit="10" /><path fill="none" d="M 714 284 L 834 284  834 354  714 354 z " stroke="rgba(0,0,0,0.051)" stroke-width="4px" stroke-dashoffset="0" stroke-linejoin="round" stroke-miterlimit="10" /><path fill="none" d="M 714 284 L 834 284  834 354  714 354 z " stroke="rgba(0,0,0,0.051)" stroke-width="2px" stroke-dashoffset="0" stroke-linejoin="round" stroke-miterlimit="10" /></g><g clip-path="url(#)" transform="matrix(1 0 0 1 0 0)"><rect x="713px" y="283px" width="120px" height="70px" fill="url(#fs1)" /><path d="M 833 306.3333 C 773 306.3333  713 306.3333  713 323.8333 L 713 283  833 283  833 306.3333 z " fill="url(#fs2)" /><rect x="713px" y="283px" width="120px" height="70px" fill="none" stroke="#000000" stroke-width="1px" stroke-dashoffset="0" stroke-linejoin="round" stroke-miterlimit="10" /><text x="721px" y="325.556243896484px" font-family="Verdana" font-size="9.599999pt" font-weight="bold" fill="#000000">Data Manager</text></g><g clip-path="url(#)" transform="matrix(1 0 0 1 0 0)" /><g clip-path="url(#)" transform="matrix(1 0 0 1 0 0)" /><g clip-path="url(#cp3)" transform="matrix(1 0 0 1 0 0)"><rect x="242px" y="135px" width="122px" height="92px" fill="rgba(0,0,0,0.196)" /></g><g clip-path="url(#)" transform="matrix(1 0 0 1 0 0)" /><g clip-path="url(#cp4)" transform="matrix(1 0 0 1 0 0)"><path fill="none" d="M 363 181 C 363 205.8528  336.1371 226  303 226  269.8629 226  243 205.8528  243 181  243 156.1472  269.8629 136  303 136  336.1371 136  363 156.1472  363 181 z " stroke="rgba(0,0,0,0.051)" stroke-width="8px" stroke-dashoffset="0" stroke-linejoin="round" stroke-miterlimit="10" /><path fill="none" d="M 363 181 C 363 205.8528  336.1371 226  303 226  269.8629 226  243 205.8528  243 181  243 156.1472  269.8629 136  303 136  336.1371 136  363 156.1472  363 181 z " stroke="rgba(0,0,0,0.051)" stroke-width="6px" stroke-dashoffset="0" stroke-linejoin="round" stroke-miterlimit="10" /><path fill="none" d="M 363 181 C 363 205.8528  336.1371 226  303 226  269.8629 226  243 205.8528  243 181  243 156.1472  269.8629 136  303 136  336.1371 136  363 156.1472  363 181 z " stroke="rgba(0,0,0,0.051)" stroke-width="4px" stroke-dashoffset="0" stroke-linejoin="round" stroke-miterlimit="10" /><path fill="none" d="M 363 181 C 363 205.8528  336.1371 226  303 226  269.8629 226  243 205.8528  243 181  243 156.1472  269.8629 136  303 136  336.1371 136  363 156.1472  363 181 z " stroke="rgba(0,0,0,0.051)" stroke-width="2px" stroke-dashoffset="0" stroke-linejoin="round" stroke-miterlimit="10" /></g><g clip-path="url(#)" transform="matrix(1 0 0 1 0 0)"><ellipse cx="302px" cy="180px" rx="60px" ry="45px" fill="url(#fs3)" /></g><g clip-path="url(#cp5)" transform="matrix(1 0 0 1 0 0)"><path d="M 362 165 C 302 165  242 165  242 187.5 L 242 135  362 135  362 165 z " fill="url(#fs4)" /></g><g clip-path="url(#)" transform="matrix(1 0 0 1 0 0)"><ellipse cx="302px" cy="180px" rx="60px" ry="45px" fill="none" stroke="#000000" stroke-width="1px" stroke-dashoffset="0" stroke-linejoin="round" stroke-miterlimit="10" /><text x="266px" y="179.556243896484px" font-family="Verdana" font-size="9.599999pt" font-weight="bold" fill="#000000">Predicate </text><text x="264px" y="195.556243896484px" font-family="Verdana" font-size="9.599999pt" font-weight="bold" fill="#000000">Generator</text></g><g clip-path="url(#)" transform="matrix(1 0 0 1 0 0)" /><g clip-path="url(#)" transform="matrix(1 0 0 1 0 0)" /><g clip-path="url(#cp6)" transform="matrix(1 0 0 1 0 0)"><rect x="480px" y="135px" width="122px" height="92px" fill="rgba(0,0,0,0.196)" /></g><g clip-path="url(#)" transform="matrix(1 0 0 1 0 0)" /><g clip-path="url(#cp7)" transform="matrix(1 0 0 1 0 0)"><path fill="none" d="M 601 181 C 601 205.8528  574.137 226  541 226  507.8629 226  481 205.8528  481 181  481 156.1472  507.8629 136  541 136  574.137 136  601 156.1472  601 181 z " stroke="rgba(0,0,0,0.051)" stroke-width="8px" stroke-dashoffset="0" stroke-linejoin="round" stroke-miterlimit="10" /><path fill="none" d="M 601 181 C 601 205.8528  574.137 226  541 226  507.8629 226  481 205.8528  481 181  481 156.1472  507.8629 136  541 136  574.137 136  601 156.1472  601 181 z " stroke="rgba(0,0,0,0.051)" stroke-width="6px" stroke-dashoffset="0" stroke-linejoin="round" stroke-miterlimit="10" /><path fill="none" d="M 601 181 C 601 205.8528  574.137 226  541 226  507.8629 226  481 205.8528  481 181  481 156.1472  507.8629 136  541 136  574.137 136  601 156.1472  601 181 z " stroke="rgba(0,0,0,0.051)" stroke-width="4px" stroke-dashoffset="0" stroke-linejoin="round" stroke-miterlimit="10" /><path fill="none" d="M 601 181 C 601 205.8528  574.137 226  541 226  507.8629 226  481 205.8528  481 181  481 156.1472  507.8629 136  541 136  574.137 136  601 156.1472  601 181 z " stroke="rgba(0,0,0,0.051)" stroke-width="2px" stroke-dashoffset="0" stroke-linejoin="round" stroke-miterlimit="10" /></g><g clip-path="url(#)" transform="matrix(1 0 0 1 0 0)"><ellipse cx="540px" cy="180px" rx="60px" ry="45px" fill="url(#fs5)" /></g><g clip-path="url(#cp8)" transform="matrix(1 0 0 1 0 0)"><path d="M 600 165 C 540 165  480 165  480 187.5 L 480 135  600 135  600 165 z " fill="url(#fs6)" /></g><g clip-path="url(#)" transform="matrix(1 0 0 1 0 0)"><ellipse cx="540px" cy="180px" rx="60px" ry="45px" fill="none" stroke="#000000" stroke-width="1px" stroke-dashoffset="0" stroke-linejoin="round" stroke-miterlimit="10" /><text x="503px" y="179.556243896484px" font-family="Verdana" font-size="9.599999pt" font-weight="bold" fill="#000000">Transition</text><text x="502px" y="195.556243896484px" font-family="Verdana" font-size="9.599999pt" font-weight="bold" fill="#000000">Generator</text></g><g clip-path="url(#)" transform="matrix(1 0 0 1 0 0)" /><g clip-path="url(#)" transform="matrix(1 0 0 1 0 0)" /><g clip-path="url(#cp9)" transform="matrix(1 0 0 1 0 0)"><rect x="242px" y="4px" width="122px" height="52px" fill="rgba(0,0,0,0.196)" /></g><g clip-path="url(#)" transform="matrix(1 0 0 1 0 0)" /><g clip-path="url(#cp10)" transform="matrix(1 0 0 1 0 0)"><path fill="none" d="M 243 5 L 363 5  363 55  243 55 z " stroke="rgba(0,0,0,0.051)" stroke-width="8px" stroke-dashoffset="0" stroke-linejoin="round" stroke-miterlimit="10" /><path fill="none" d="M 243 5 L 363 5  363 55  243 55 z " stroke="rgba(0,0,0,0.051)" stroke-width="6px" stroke-dashoffset="0" stroke-linejoin="round" stroke-miterlimit="10" /><path fill="none" d="M 243 5 L 363 5  363 55  243 55 z " stroke="rgba(0,0,0,0.051)" stroke-width="4px" stroke-dashoffset="0" stroke-linejoin="round" stroke-miterlimit="10" /><path fill="none" d="M 243 5 L 363 5  363 55  243 55 z " stroke="rgba(0,0,0,0.051)" stroke-width="2px" stroke-dashoffset="0" stroke-linejoin="round" stroke-miterlimit="10" /></g><g clip-path="url(#)" transform="matrix(1 0 0 1 0 0)"><rect x="242px" y="4px" width="120px" height="50px" fill="url(#fs7)" /><path d="M 362 20.66667 C 302 20.66667  242 20.66667  242 33.16667 L 242 4  362 4  362 20.66667 z " fill="url(#fs8)" /><line x1="242px" y1="4px" x2="362px" y2="4px" stroke="#000000" stroke-width="1px" stroke-dashoffset="0" stroke-linejoin="round" stroke-miterlimit="10" /><line x1="242px" y1="54px" x2="362px" y2="54px" stroke="#000000" stroke-width="1px" stroke-dashoffset="0" stroke-linejoin="round" stroke-miterlimit="10" /><text x="274px" y="28.5562477111816px" font-family="Verdana" font-size="9.599999pt" font-weight="bold" fill="#000000">Current</text><text x="269px" y="44.5562477111816px" font-family="Verdana" font-size="9.599999pt" font-weight="bold" fill="#000000">Situation</text></g><g clip-path="url(#)" transform="matrix(1 0 0 1 0 0)" /><g clip-path="url(#)" transform="matrix(1 0 0 1 0 0)" /><g clip-path="url(#cp11)" transform="matrix(1 0 0 1 0 0)"><rect x="480px" y="4px" width="122px" height="52px" fill="rgba(0,0,0,0.196)" /></g><g clip-path="url(#)" transform="matrix(1 0 0 1 0 0)" /><g clip-path="url(#cp12)" transform="matrix(1 0 0 1 0 0)"><path fill="none" d="M 481 5 L 601 5  601 55  481 55 z " stroke="rgba(0,0,0,0.051)" stroke-width="8px" stroke-dashoffset="0" stroke-linejoin="round" stroke-miterlimit="10" /><path fill="none" d="M 481 5 L 601 5  601 55  481 55 z " stroke="rgba(0,0,0,0.051)" stroke-width="6px" stroke-dashoffset="0" stroke-linejoin="round" stroke-miterlimit="10" /><path fill="none" d="M 481 5 L 601 5  601 55  481 55 z " stroke="rgba(0,0,0,0.051)" stroke-width="4px" stroke-dashoffset="0" stroke-linejoin="round" stroke-miterlimit="10" /><path fill="none" d="M 481 5 L 601 5  601 55  481 55 z " stroke="rgba(0,0,0,0.051)" stroke-width="2px" stroke-dashoffset="0" stroke-linejoin="round" stroke-miterlimit="10" /></g><g clip-path="url(#)" transform="matrix(1 0 0 1 0 0)"><rect x="480px" y="4px" width="120px" height="50px" fill="url(#fs9)" /><path d="M 600 20.66667 C 540 20.66667  480 20.66667  480 33.16667 L 480 4  600 4  600 20.66667 z " fill="url(#fs10)" /><line x1="480px" y1="4px" x2="600px" y2="4px" stroke="#000000" stroke-width="1px" stroke-dashoffset="0" stroke-linejoin="round" stroke-miterlimit="10" /><line x1="480px" y1="54px" x2="600px" y2="54px" stroke="#000000" stroke-width="1px" stroke-dashoffset="0" stroke-linejoin="round" stroke-miterlimit="10" /><text x="490px" y="36.5562477111816px" font-family="Verdana" font-size="9.599999pt" font-weight="bold" fill="#000000">Last Situation</text></g><g clip-path="url(#)" transform="matrix(1 0 0 1 0 0)" /><g clip-path="url(#)" transform="matrix(1 0 0 1 0 0)" /><g clip-path="url(#cp13)" transform="matrix(1 0 0 1 0 0)"><rect x="480px" y="293px" width="122px" height="52px" fill="rgba(0,0,0,0.196)" /></g><g clip-path="url(#)" transform="matrix(1 0 0 1 0 0)" /><g clip-path="url(#cp14)" transform="matrix(1 0 0 1 0 0)"><path fill="none" d="M 481 294 L 601 294  601 344  481 344 z " stroke="rgba(0,0,0,0.051)" stroke-width="8px" stroke-dashoffset="0" stroke-linejoin="round" stroke-miterlimit="10" /><path fill="none" d="M 481 294 L 601 294  601 344  481 344 z " stroke="rgba(0,0,0,0.051)" stroke-width="6px" stroke-dashoffset="0" stroke-linejoin="round" stroke-miterlimit="10" /><path fill="none" d="M 481 294 L 601 294  601 344  481 344 z " stroke="rgba(0,0,0,0.051)" stroke-width="4px" stroke-dashoffset="0" stroke-linejoin="round" stroke-miterlimit="10" /><path fill="none" d="M 481 294 L 601 294  601 344  481 344 z " stroke="rgba(0,0,0,0.051)" stroke-width="2px" stroke-dashoffset="0" stroke-linejoin="round" stroke-miterlimit="10" /></g><g clip-path="url(#)" transform="matrix(1 0 0 1 0 0)"><rect x="480px" y="293px" width="120px" height="50px" fill="url(#fs11)" /><path d="M 600 309.6667 C 540 309.6667  480 309.6667  480 322.1667 L 480 293  600 293  600 309.6667 z " fill="url(#fs12)" /><line x1="480px" y1="293px" x2="600px" y2="293px" stroke="#000000" stroke-width="1px" stroke-dashoffset="0" stroke-linejoin="round" stroke-miterlimit="10" /><line x1="480px" y1="343px" x2="600px" y2="343px" stroke="#000000" stroke-width="1px" stroke-dashoffset="0" stroke-linejoin="round" stroke-miterlimit="10" /><text x="512px" y="317.556243896484px" font-family="Verdana" font-size="9.599999pt" font-weight="bold" fill="#000000">Current</text><text x="503px" y="333.556243896484px" font-family="Verdana" font-size="9.599999pt" font-weight="bold" fill="#000000">Transition</text></g><g clip-path="url(#)" transform="matrix(1 0 0 1 0 0)" /><g clip-path="url(#)" transform="matrix(1 0 0 1 0 0)" /><g clip-path="url(#cp15)" transform="matrix(1 0 0 1 0 0)"><rect x="4px" y="145px" width="122px" height="72px" fill="rgba(0,0,0,0.196)" /></g><g clip-path="url(#)" transform="matrix(1 0 0 1 0 0)" /><g clip-path="url(#cp16)" transform="matrix(1 0 0 1 0 0)"><path fill="none" d="M 5 146 L 125 146  125 216  5 216 z " stroke="rgba(0,0,0,0.051)" stroke-width="8px" stroke-dashoffset="0" stroke-linejoin="round" stroke-miterlimit="10" /><path fill="none" d="M 5 146 L 125 146  125 216  5 216 z " stroke="rgba(0,0,0,0.051)" stroke-width="6px" stroke-dashoffset="0" stroke-linejoin="round" stroke-miterlimit="10" /><path fill="none" d="M 5 146 L 125 146  125 216  5 216 z " stroke="rgba(0,0,0,0.051)" stroke-width="4px" stroke-dashoffset="0" stroke-linejoin="round" stroke-miterlimit="10" /><path fill="none" d="M 5 146 L 125 146  125 216  5 216 z " stroke="rgba(0,0,0,0.051)" stroke-width="2px" stroke-dashoffset="0" stroke-linejoin="round" stroke-miterlimit="10" /></g><g clip-path="url(#)" transform="matrix(1 0 0 1 0 0)"><rect x="4px" y="145px" width="120px" height="70px" fill="url(#fs13)" /><path d="M 124 168.3333 C 64 168.3333  4 168.3333  4 185.8333 L 4 145  124 145  124 168.3333 z " fill="url(#fs14)" /><rect x="4px" y="145px" width="120px" height="70px" fill="none" stroke="#000000" stroke-width="1px" stroke-dashoffset="0" stroke-linejoin="round" stroke-miterlimit="10" /><text x="25px" y="187.556243896484px" font-family="Verdana" font-size="9.599999pt" font-weight="bold" fill="#000000">Simulation</text></g><g clip-path="url(#)" transform="matrix(1 0 0 1 0 0)" /><g clip-path="url(#)" transform="matrix(1 0 0 1 0 0)"><polyline points="124,180 242,180 " fill="none" stroke="#000000" stroke-width="1px" stroke-dashoffset="0" stroke-linejoin="round" stroke-miterlimit="10" /><polygon points="242,180 223,174 223,186 " fill="#000000" /><polygon fill="none" points="242,180 223,174 223,186 " stroke="#000000" stroke-width="1px" stroke-dashoffset="0" stroke-linejoin="round" stroke-miterlimit="10" /><text x="130px" y="175.024993896484px" font-family="Segoe UI" font-size="9.599999pt" fill="#000000">Raw Step Data</text></g><g clip-path="url(#)" transform="matrix(1 0 0 1 0 0)" /><g clip-path="url(#)" transform="matrix(1 0 0 1 0 0)"><polyline points="302,135 302,54 " fill="none" stroke="#000000" stroke-width="1px" stroke-dashoffset="0" stroke-linejoin="round" stroke-miterlimit="10" /><polygon points="302,54 296,73 308,73 " fill="#000000" /><polygon fill="none" points="302,54 296,73 308,73 " stroke="#000000" stroke-width="1px" stroke-dashoffset="0" stroke-linejoin="round" stroke-miterlimit="10" /><text x="244px" y="95.0249938964844px" font-family="Segoe UI" font-size="9.599999pt" fill="#000000">Situation Data</text></g><g clip-path="url(#)" transform="matrix(1 0 0 1 0 0)" /><g clip-path="url(#)" transform="matrix(1 0 0 1 0 0)"><polyline points="540,54 540,135 " fill="none" stroke="#000000" stroke-width="1px" stroke-dashoffset="0" stroke-linejoin="round" stroke-miterlimit="10" /><polygon points="540,135 546,116 534,116 " fill="#000000" /><polygon fill="none" points="540,135 546,116 534,116 " stroke="#000000" stroke-width="1px" stroke-dashoffset="0" stroke-linejoin="round" stroke-miterlimit="10" /><text x="490px" y="102.024993896484px" font-family="Segoe UI" font-size="9.599999pt" fill="#000000">Situation Data</text></g><g clip-path="url(#)" transform="matrix(1 0 0 1 0 0)" /><g clip-path="url(#)" transform="matrix(1 0 0 1 0 0)"><polyline points="341,54 507,142 " fill="none" stroke="#000000" stroke-width="1px" stroke-dashoffset="0" stroke-linejoin="round" stroke-miterlimit="10" /><polygon points="507,142 493,128 487,139 " fill="#000000" /><polygon fill="none" points="507,142 493,128 487,139 " stroke="#000000" stroke-width="1px" stroke-dashoffset="0" stroke-linejoin="round" stroke-miterlimit="10" /><text x="374px" y="105.024993896484px" font-family="Segoe UI" font-size="9.599999pt" fill="#000000">Situation Data</text></g><g clip-path="url(#)" transform="matrix(1 0 0 1 0 0)" /><g clip-path="url(#)" transform="matrix(1 0 0 1 0 0)"><polyline points="540,225 540,293 " fill="none" stroke="#000000" stroke-width="1px" stroke-dashoffset="0" stroke-linejoin="round" stroke-miterlimit="10" /><polygon points="540,293 546,274 534,274 " fill="#000000" /><polygon fill="none" points="540,293 546,274 534,274 " stroke="#000000" stroke-width="1px" stroke-dashoffset="0" stroke-linejoin="round" stroke-miterlimit="10" /><text x="486px" y="266.024993896484px" font-family="Segoe UI" font-size="9.599999pt" fill="#000000">Transition Data</text></g><g clip-path="url(#)" transform="matrix(1 0 0 1 0 0)" /><g clip-path="url(#)" transform="matrix(1 0 0 1 0 0)"><polyline points="600,318 713,318 " fill="none" stroke="#000000" stroke-width="1px" stroke-dashoffset="0" stroke-linejoin="round" stroke-miterlimit="10" /><polygon points="713,318 694,312 694,324 " fill="#000000" /><polygon fill="none" points="713,318 694,312 694,324 " stroke="#000000" stroke-width="1px" stroke-dashoffset="0" stroke-linejoin="round" stroke-miterlimit="10" /><text x="600px" y="313.024993896484px" font-family="Segoe UI" font-size="9.599999pt" fill="#000000">Transition Data</text></g></svg>